*
G04 Mass Parameters ***
*
G04 Image ***
*
%INE:\HXCFLOPPYEMULATOR_IPCORE\PCB\PROD_VERSION_REVC\ORCAD_LAYOUT\CPLDHXCFLOPPYEMULATOR.DRD*%
%ICAS*%
%MOIN*%
%IPPOS*%
%ASAXBY*%
G74*%FSLAN2X34Y34*%
*
G04 Aperture Definitions ***
*
%ADD10C,0.0450*%
%ADD11C,0.0520*%
%ADD12R,0.0520X0.0520*%
%ADD13C,0.0580*%
%ADD14R,0.0580X0.0580*%
%ADD15C,0.0620*%
%ADD16R,0.0500X0.0500*%
%ADD17R,0.0640X0.0740*%
%ADD18O,0.0900X0.0160*%
%ADD19R,0.0900X0.0160*%
%ADD20C,0.0140*%
%ADD21C,0.0160*%
%ADD22C,0.0260*%
%ADD23C,0.0240*%
%ADD24C,0.0650*%
%ADD25C,0.0720*%
%ADD26R,0.0720X0.0720*%
%ADD27C,0.0780*%
%ADD28R,0.0780X0.0780*%
%ADD29C,0.0800*%
%ADD30C,0.0500*%
%ADD31C,0.0670*%
%ADD32C,0.0080*%
%ADD33C,0.0100*%
%ADD34C,0.1000*%
%ADD35C,0.0700*%
%ADD36C,0.0990*%
%ADD37R,0.0600X0.0600*%
%ADD38C,0.0600*%
%ADD39C,0.0550*%
%ADD40R,0.0650X0.0650*%
%ADD41C,0.0940*%
%ADD42R,0.0700X0.0700*%
%ADD43R,0.0670X0.0670*%
%ADD44C,0.0010*%
%ADD45C,0.0140*%
%ADD46C,0.0050*%
%ADD47C,0.0460*%
%ADD48C,0.0320*%
%ADD49C,0.0520*%
%ADD50C,0.0250*%
%ADD51C,0.0180*%
%ADD52C,0.0500*%
%ADD53C,0.0120*%
%ADD54C,0.0140*%
%ADD55C,0.0750*%
%ADD56C,0.0550*%
%ADD57C,0.0060*%
%ADD58C,0.0750*%
%ADD59C,0.0140*%
%ADD60C,0.0140*%
%ADD61C,0.1100*%
%ADD62C,0.0500*%
%ADD63C,0.1400*%
%ADD64C,0.1050*%
%ADD65C,0.1300*%
%ADD66C,0.0610*%
%ADD67C,0.1360*%
%ADD68C,0.1350*%
%ADD69C,0.0660*%
%ADD70C,0.0140*%
%ADD71C,0.0140*%
%ADD72R,0.1200X0.0800*%
%ADD73R,0.0590X0.1120*%
%ADD74R,0.0920X0.0560*%
%ADD75R,0.0320X0.0380*%
%ADD76R,0.0340X0.0400*%
%ADD77R,0.0340X0.0500*%
%ADD78R,0.0500X0.0340*%
%ADD79R,0.0400X0.0340*%
%ADD80C,0.0140*%
%ADD81C,0.0140*%
%ADD82C,0.0140*%
%ADD83R,0.0620X0.0620*%
%ADD84C,0.0140*%
%ADD85C,0.0680*%
%ADD86C,0.1417*%
%ADD87C,0.1500*%
%ADD88C,0.1476*%
%ADD89C,0.0340*%
%ADD90C,0.0480*%
%ADD91R,0.0680X0.0680*%
%ADD92R,0.0660X0.0660*%
%ADD93C,0.0640*%
%ADD94R,0.0640X0.0640*%
%ADD95C,0.0140*%
%ADD96R,0.1200X0.1201*%
%ADD97C,0.1496*%
%ADD98C,0.0640*%
%ADD99C,0.1535*%
%ADD100C,0.0680*%
%ADD101R,0.1200X0.1200*%
*
G04 Plot Data ***
*
G54D30*
G01X0010500Y0053500D02*
X0006000D01*
Y0013500D01*
X0045900D01*
Y0053500D01*
X0010500D01*
G54D33*
G01X0030375Y0000417D02*
X0030458Y0000583D01*
Y0000750D01*
X0030375Y0000917D01*
X0029875D01*
X0029792Y0000750D01*
Y0000583D01*
X0029875Y0000417D01*
X0030375D01*
X0030458Y0000250D01*
Y0000083D01*
X0030375Y-0000083D01*
X0029875D01*
X0029792Y0000083D01*
Y0000250D01*
X0029875Y0000417D01*
X0029425D02*
X0029508Y0000583D01*
Y0000750D01*
X0029425Y0000917D01*
X0028925D01*
X0028842Y0000750D01*
Y0000583D01*
X0028925Y0000417D01*
X0029425D01*
X0029508Y0000250D01*
Y0000083D01*
X0029425Y-0000083D01*
X0028925D01*
X0028842Y0000083D01*
Y0000250D01*
X0028925Y0000417D01*
X0028558Y-0000083D02*
X0027892D01*
X0028558Y0000583D01*
Y0000750D01*
X0028475Y0000917D01*
X0027975D01*
X0027892Y0000750D01*
X0018062Y-0000083D02*
X0017479D01*
Y0000917D01*
X0017196Y0000250D02*
X0016529D01*
X0017196Y-0000083D02*
Y0000417D01*
X0016946Y0000917D01*
X0016779D01*
X0016529Y0000417D01*
Y-0000083D01*
X0015912D02*
Y0000917D01*
X0016246D02*
X0015579D01*
X0014712Y-0000083D02*
X0014629Y0000083D01*
Y0000750D01*
X0014712Y0000917D01*
X0015212D01*
X0015296Y0000750D01*
Y0000083D01*
X0015212Y-0000083D01*
X0014712D01*
X0014012D02*
Y0000917D01*
X0014346D02*
X0013679D01*
X0030458Y0002000D02*
X0030014D01*
X0030236Y0002444D01*
X0030347D01*
Y0001778D01*
X0016564D02*
X0016453Y0001889D01*
X0016397Y0002000D01*
Y0002222D01*
X0016453Y0002333D01*
X0016564Y0002444D01*
X0016675D01*
X0016786Y0002333D01*
X0016842Y0002222D01*
Y0002000D01*
X0016786Y0001889D01*
X0016675Y0001778D01*
X0016564D01*
X0015697Y0001889D02*
X0015808Y0001778D01*
X0016030D01*
X0016142Y0001889D01*
Y0002000D01*
X0015919Y0002222D01*
X0016142Y0002444D01*
X0015697D01*
X0015442Y0001778D02*
X0015219D01*
X0015330D02*
Y0002444D01*
X0015219Y0002333D01*
X0014742Y0001778D02*
X0014853D01*
Y0001889D01*
X0014742D01*
Y0001778D01*
X0014097D02*
X0013986Y0001889D01*
X0013931Y0002000D01*
Y0002222D01*
X0013986Y0002333D01*
X0014097Y0002444D01*
X0014208D01*
X0014319Y0002333D01*
X0014375Y0002222D01*
Y0002000D01*
X0014319Y0001889D01*
X0014208Y0001778D01*
X0014097D01*
X0030458Y0003278D02*
X0030014D01*
X0030458Y0003722D01*
Y0003833D01*
X0030403Y0003944D01*
X0030069D01*
X0030014Y0003833D01*
X0016453Y0003611D02*
X0016786D01*
X0016842Y0003500D01*
Y0003389D01*
X0016786Y0003278D01*
X0016453D01*
X0016397Y0003389D01*
Y0003500D01*
X0016619Y0003944D01*
X0015864Y0003278D02*
X0015753Y0003389D01*
X0015697Y0003500D01*
Y0003722D01*
X0015753Y0003833D01*
X0015864Y0003944D01*
X0015975D01*
X0016086Y0003833D01*
X0016142Y0003722D01*
Y0003500D01*
X0016086Y0003389D01*
X0015975Y0003278D01*
X0015864D01*
X0015442D02*
X0015219D01*
X0015330D02*
Y0003944D01*
X0015219Y0003833D01*
X0014742Y0003278D02*
X0014853D01*
Y0003389D01*
X0014742D01*
Y0003278D01*
X0014097D02*
X0013986Y0003389D01*
X0013931Y0003500D01*
Y0003722D01*
X0013986Y0003833D01*
X0014097Y0003944D01*
X0014208D01*
X0014319Y0003833D01*
X0014375Y0003722D01*
Y0003500D01*
X0014319Y0003389D01*
X0014208Y0003278D01*
X0014097D01*
X0030180Y0004778D02*
X0030069Y0004889D01*
X0030014Y0005000D01*
Y0005222D01*
X0030069Y0005333D01*
X0030180Y0005444D01*
X0030292D01*
X0030403Y0005333D01*
X0030458Y0005222D01*
Y0005000D01*
X0030403Y0004889D01*
X0030292Y0004778D01*
X0030180D01*
X0029758Y0005000D02*
X0029314D01*
X0029536Y0005444D01*
X0029647D01*
Y0004778D01*
X0016786Y0005111D02*
X0016842Y0005222D01*
Y0005333D01*
X0016786Y0005444D01*
X0016453D01*
X0016397Y0005333D01*
Y0005222D01*
X0016453Y0005111D01*
X0016786D01*
X0016842Y0005000D01*
Y0004889D01*
X0016786Y0004778D01*
X0016453D01*
X0016397Y0004889D01*
Y0005000D01*
X0016453Y0005111D01*
X0015697Y0004889D02*
X0015808Y0004778D01*
X0016030D01*
X0016142Y0004889D01*
Y0005000D01*
X0015919Y0005222D01*
X0016142Y0005444D01*
X0015697D01*
X0015164Y0004778D02*
X0015053Y0004889D01*
X0014997Y0005000D01*
Y0005222D01*
X0015053Y0005333D01*
X0015164Y0005444D01*
X0015275D01*
X0015386Y0005333D01*
X0015442Y0005222D01*
Y0005000D01*
X0015386Y0004889D01*
X0015275Y0004778D01*
X0015164D01*
X0014631D02*
X0014742D01*
Y0004889D01*
X0014631D01*
Y0004778D01*
X0013986D02*
X0013875Y0004889D01*
X0013819Y0005000D01*
Y0005222D01*
X0013875Y0005333D01*
X0013986Y0005444D01*
X0014097D01*
X0014208Y0005333D01*
X0014264Y0005222D01*
Y0005000D01*
X0014208Y0004889D01*
X0014097Y0004778D01*
X0013986D01*
X0030458Y0006278D02*
X0030014D01*
X0030458Y0006722D01*
Y0006833D01*
X0030403Y0006944D01*
X0030069D01*
X0030014Y0006833D01*
X0029758Y0006500D02*
X0029314D01*
X0029536Y0006944D01*
X0029647D01*
Y0006278D01*
X0029058D02*
X0028614D01*
X0029058Y0006722D01*
Y0006833D01*
X0029003Y0006944D01*
X0028669D01*
X0028614Y0006833D01*
X0016453Y0006611D02*
X0016786D01*
X0016842Y0006500D01*
Y0006389D01*
X0016786Y0006278D01*
X0016453D01*
X0016397Y0006389D01*
Y0006500D01*
X0016619Y0006944D01*
X0015697Y0006389D02*
X0015808Y0006278D01*
X0016030D01*
X0016142Y0006389D01*
Y0006500D01*
X0015919Y0006722D01*
X0016142Y0006944D01*
X0015697D01*
X0015164Y0006278D02*
X0015053Y0006389D01*
X0014997Y0006500D01*
Y0006722D01*
X0015053Y0006833D01*
X0015164Y0006944D01*
X0015275D01*
X0015386Y0006833D01*
X0015442Y0006722D01*
Y0006500D01*
X0015386Y0006389D01*
X0015275Y0006278D01*
X0015164D01*
X0014631D02*
X0014742D01*
Y0006389D01*
X0014631D01*
Y0006278D01*
X0013986D02*
X0013875Y0006389D01*
X0013819Y0006500D01*
Y0006722D01*
X0013875Y0006833D01*
X0013986Y0006944D01*
X0014097D01*
X0014208Y0006833D01*
X0014264Y0006722D01*
Y0006500D01*
X0014208Y0006389D01*
X0014097Y0006278D01*
X0013986D01*
X0038862Y0008417D02*
X0038362D01*
X0039029Y0007917D02*
X0038362D01*
Y0008917D01*
X0039029D01*
X0037746Y0007917D02*
Y0008917D01*
X0038079D02*
X0037412D01*
X0036546Y0007917D02*
X0036462Y0008083D01*
Y0008750D01*
X0036546Y0008917D01*
X0037046D01*
X0037129Y0008750D01*
Y0008083D01*
X0037046Y0007917D01*
X0036546D01*
X0036179Y0008917D02*
Y0007917D01*
X0036012Y0008083D01*
X0035679Y0008750D01*
X0035512Y0008917D01*
Y0007917D01*
X0029675D02*
Y0008417D01*
X0030008Y0008917D02*
X0029758Y0008417D01*
X0029592D01*
X0029342Y0008917D01*
X0028725Y0007917D02*
Y0008917D01*
X0029058D02*
X0028392D01*
X0027775Y0008250D02*
X0028108Y0007917D01*
X0027442Y0008083D02*
X0027525Y0007917D01*
X0027858D01*
X0027942Y0008083D01*
X0028108Y0008250D01*
Y0008750D01*
X0028025Y0008917D01*
X0027525D01*
X0027442Y0008750D01*
Y0008083D01*
X0023158Y0007917D02*
X0022575D01*
Y0008917D01*
X0021708Y0007917D02*
X0021625Y0008083D01*
Y0008750D01*
X0021708Y0008917D01*
X0022208D01*
X0022292Y0008750D01*
Y0008083D01*
X0022208Y0007917D01*
X0021708D01*
X0021008D02*
Y0008917D01*
X0021342D02*
X0020675D01*
X0015337Y0007917D02*
Y0008917D01*
X0015171Y0008750D01*
X0015004Y0008417D01*
X0014837Y0008750D01*
X0014671Y0008917D01*
Y0007917D01*
X0014387Y0008250D02*
X0013721D01*
X0014387Y0007917D02*
Y0008417D01*
X0014137Y0008917D01*
X0013971D01*
X0013721Y0008417D01*
Y0007917D01*
X0013437D02*
X0013104D01*
X0013271D02*
Y0008917D01*
X0013437D02*
X0013104D01*
X0012071Y0007917D02*
Y0008917D01*
X0011987Y0007917D02*
X0012487D01*
X0012654Y0008250D01*
Y0008583D01*
X0012487Y0008917D01*
X0011987D01*
X0008900Y0007917D02*
Y0008917D01*
X0008733Y0008750D01*
X0008567Y0008417D01*
X0008400Y0008750D01*
X0008233Y0008917D01*
Y0007917D01*
X0007617D02*
Y0008417D01*
X0007950Y0008917D02*
X0007700Y0008417D01*
X0007533D01*
X0007283Y0008917D01*
X0007000Y0008750D02*
X0006917Y0008917D01*
X0006417D01*
X0006333Y0008750D01*
Y0008583D01*
X0006417Y0008417D01*
X0006917D01*
X0007000Y0008250D01*
Y0008083D01*
X0006917Y0007917D01*
X0006417D01*
X0006333Y0008083D01*
X0029187Y0009917D02*
Y0010917D01*
X0029521D02*
X0028854D01*
X0028321Y0010417D02*
X0028571Y0009917D01*
X0027904Y0010417D02*
X0028404D01*
X0028571Y0010583D01*
Y0010750D01*
X0028404Y0010917D01*
X0027904D01*
Y0009917D01*
X0027621Y0010250D02*
X0026954D01*
X0027621Y0009917D02*
Y0010417D01*
X0027371Y0010917D01*
X0027204D01*
X0026954Y0010417D01*
Y0009917D01*
X0026671Y0010417D02*
X0026004D01*
X0026671Y0009917D02*
Y0010917D01*
X0026004Y0009917D02*
Y0010917D01*
X0025721Y0010083D02*
X0025637Y0009917D01*
X0025137D01*
X0025054Y0010083D01*
Y0010750D01*
X0025137Y0010917D01*
X0025637D01*
X0025721Y0010750D01*
X0023446Y0009917D02*
X0022862D01*
Y0010917D01*
X0022579Y0009917D02*
X0021996D01*
Y0010917D01*
X0021712Y0009917D02*
X0021379D01*
X0021546D02*
Y0010917D01*
X0021712D02*
X0021379D01*
X0020679Y0010417D02*
X0020929Y0009917D01*
X0020262Y0010417D02*
X0020762D01*
X0020929Y0010583D01*
Y0010750D01*
X0020762Y0010917D01*
X0020262D01*
Y0009917D01*
X0019396D02*
Y0010917D01*
X0019312Y0009917D02*
X0019812D01*
X0019979Y0010250D01*
Y0010583D01*
X0019812Y0010917D01*
X0019312D01*
X0021000Y0019100D02*
Y0018900D01*
X0021250Y0018850D02*
X0021000Y0019100D01*
X0021500D02*
X0021250Y0018850D01*
X0021500Y0018900D02*
Y0019100D01*
X0021250Y0019150D02*
X0021500Y0018900D01*
X0021000D02*
X0021250Y0019150D01*
X0034000Y0024100D02*
Y0023900D01*
X0034250Y0023850D02*
X0034000Y0024100D01*
X0034500D02*
X0034250Y0023850D01*
X0034500Y0023900D02*
Y0024100D01*
X0034250Y0024150D02*
X0034500Y0023900D01*
X0034000D02*
X0034250Y0024150D01*
X0028000Y0026600D02*
Y0026400D01*
X0028250Y0026350D02*
X0028000Y0026600D01*
X0028500D02*
X0028250Y0026350D01*
X0028500Y0026400D02*
Y0026600D01*
X0028250Y0026650D02*
X0028500Y0026400D01*
X0028000D02*
X0028250Y0026650D01*
X0022500Y0028350D02*
Y0028150D01*
X0022750Y0028100D02*
X0022500Y0028350D01*
X0023000D02*
X0022750Y0028100D01*
X0023000Y0028150D02*
Y0028350D01*
X0022750Y0028400D02*
X0023000Y0028150D01*
X0022500D02*
X0022750Y0028400D01*
X0022500Y0031600D02*
Y0031400D01*
X0022750Y0031350D02*
X0022500Y0031600D01*
X0023000D02*
X0022750Y0031350D01*
X0023000Y0031400D02*
Y0031600D01*
X0022750Y0031650D02*
X0023000Y0031400D01*
X0022500D02*
X0022750Y0031650D01*
X0025000Y0031600D02*
Y0031400D01*
X0025250Y0031350D02*
X0025000Y0031600D01*
X0025500D02*
X0025250Y0031350D01*
X0025500Y0031400D02*
Y0031600D01*
X0025250Y0031650D02*
X0025500Y0031400D01*
X0025000D02*
X0025250Y0031650D01*
X0027500Y0031600D02*
Y0031400D01*
X0027750Y0031350D02*
X0027500Y0031600D01*
X0028000D02*
X0027750Y0031350D01*
X0028000Y0031400D02*
Y0031600D01*
X0027750Y0031650D02*
X0028000Y0031400D01*
X0027500D02*
X0027750Y0031650D01*
Y0029850D02*
Y0029650D01*
X0028000Y0029600D02*
X0027750Y0029850D01*
X0028250D02*
X0028000Y0029600D01*
X0028250Y0029650D02*
Y0029850D01*
X0028000Y0029900D02*
X0028250Y0029650D01*
X0027750D02*
X0028000Y0029900D01*
X0027500Y0031600D02*
Y0031400D01*
X0027750Y0031350D02*
X0027500Y0031600D01*
X0028000D02*
X0027750Y0031350D01*
X0028000Y0031400D02*
Y0031600D01*
X0027750Y0031650D02*
X0028000Y0031400D01*
X0027500D02*
X0027750Y0031650D01*
X0025000Y0031600D02*
Y0031400D01*
X0025250Y0031350D02*
X0025000Y0031600D01*
X0025500D02*
X0025250Y0031350D01*
X0025500Y0031400D02*
Y0031600D01*
X0025250Y0031650D02*
X0025500Y0031400D01*
X0025000D02*
X0025250Y0031650D01*
X0022500Y0031600D02*
Y0031400D01*
X0022750Y0031350D02*
X0022500Y0031600D01*
X0023000D02*
X0022750Y0031350D01*
X0023000Y0031400D02*
Y0031600D01*
X0022750Y0031650D02*
X0023000Y0031400D01*
X0022500D02*
X0022750Y0031650D01*
X0011000Y0018350D02*
Y0018150D01*
X0011250Y0018100D02*
X0011000Y0018350D01*
X0011500D02*
X0011250Y0018100D01*
X0011500Y0018150D02*
Y0018350D01*
X0011250Y0018400D02*
X0011500Y0018150D01*
X0011000D02*
X0011250Y0018400D01*
X0015250Y0024350D02*
Y0024150D01*
X0015500Y0024100D02*
X0015250Y0024350D01*
X0015750D02*
X0015500Y0024100D01*
X0015750Y0024150D02*
Y0024350D01*
X0015500Y0024400D02*
X0015750Y0024150D01*
X0015250D02*
X0015500Y0024400D01*
X0008750Y0027100D02*
Y0026900D01*
X0009000Y0026850D02*
X0008750Y0027100D01*
X0009250D02*
X0009000Y0026850D01*
X0009250Y0026900D02*
Y0027100D01*
X0009000Y0027150D02*
X0009250Y0026900D01*
X0008750D02*
X0009000Y0027150D01*
X0022500Y0028350D02*
Y0028150D01*
X0022750Y0028100D02*
X0022500Y0028350D01*
X0023000D02*
X0022750Y0028100D01*
X0023000Y0028150D02*
Y0028350D01*
X0022750Y0028400D02*
X0023000Y0028150D01*
X0022500D02*
X0022750Y0028400D01*
X0022500Y0026600D02*
Y0026400D01*
X0022750Y0026350D02*
X0022500Y0026600D01*
X0023000D02*
X0022750Y0026350D01*
X0023000Y0026400D02*
Y0026600D01*
X0022750Y0026650D02*
X0023000Y0026400D01*
X0022500D02*
X0022750Y0026650D01*
X0025000Y0026600D02*
Y0026400D01*
X0025250Y0026350D02*
X0025000Y0026600D01*
X0025500D02*
X0025250Y0026350D01*
X0025500Y0026400D02*
Y0026600D01*
X0025250Y0026650D02*
X0025500Y0026400D01*
X0025000D02*
X0025250Y0026650D01*
X0022500Y0028350D02*
Y0028150D01*
X0022750Y0028100D02*
X0022500Y0028350D01*
X0023000D02*
X0022750Y0028100D01*
X0023000Y0028150D02*
Y0028350D01*
X0022750Y0028400D02*
X0023000Y0028150D01*
X0022500D02*
X0022750Y0028400D01*
X0022500Y0026600D02*
Y0026400D01*
X0022750Y0026350D02*
X0022500Y0026600D01*
X0023000D02*
X0022750Y0026350D01*
X0023000Y0026400D02*
Y0026600D01*
X0022750Y0026650D02*
X0023000Y0026400D01*
X0022500D02*
X0022750Y0026650D01*
X0024500Y0022100D02*
Y0021900D01*
X0024750Y0021850D02*
X0024500Y0022100D01*
X0025000D02*
X0024750Y0021850D01*
X0025000Y0021900D02*
Y0022100D01*
X0024750Y0022150D02*
X0025000Y0021900D01*
X0024500D02*
X0024750Y0022150D01*
X0025000Y0026600D02*
Y0026400D01*
X0025250Y0026350D02*
X0025000Y0026600D01*
X0025500D02*
X0025250Y0026350D01*
X0025500Y0026400D02*
Y0026600D01*
X0025250Y0026650D02*
X0025500Y0026400D01*
X0025000D02*
X0025250Y0026650D01*
X0028000Y0026600D02*
Y0026400D01*
X0028250Y0026350D02*
X0028000Y0026600D01*
X0028500D02*
X0028250Y0026350D01*
X0028500Y0026400D02*
Y0026600D01*
X0028250Y0026650D02*
X0028500Y0026400D01*
X0028000D02*
X0028250Y0026650D01*
X0030250Y0042600D02*
Y0042400D01*
X0030500Y0042350D02*
X0030250Y0042600D01*
X0030750D02*
X0030500Y0042350D01*
X0030750Y0042400D02*
Y0042600D01*
X0030500Y0042650D02*
X0030750Y0042400D01*
X0030250D02*
X0030500Y0042650D01*
X0025750Y0038350D02*
Y0038150D01*
X0026000Y0038100D02*
X0025750Y0038350D01*
X0026250D02*
X0026000Y0038100D01*
X0026250Y0038150D02*
Y0038350D01*
X0026000Y0038400D02*
X0026250Y0038150D01*
X0025750D02*
X0026000Y0038400D01*
X0023750Y0038350D02*
Y0038150D01*
X0024000Y0038100D02*
X0023750Y0038350D01*
X0024250D02*
X0024000Y0038100D01*
X0024250Y0038150D02*
Y0038350D01*
X0024000Y0038400D02*
X0024250Y0038150D01*
X0023750D02*
X0024000Y0038400D01*
X0026500Y0040100D02*
Y0039900D01*
X0026750Y0039850D02*
X0026500Y0040100D01*
X0027000D02*
X0026750Y0039850D01*
X0027000Y0039900D02*
Y0040100D01*
X0026750Y0040150D02*
X0027000Y0039900D01*
X0026500D02*
X0026750Y0040150D01*
X0016500Y0027100D02*
Y0026900D01*
X0016750Y0026850D02*
X0016500Y0027100D01*
X0017000D02*
X0016750Y0026850D01*
X0017000Y0026900D02*
Y0027100D01*
X0016750Y0027150D02*
X0017000Y0026900D01*
X0016500D02*
X0016750Y0027150D01*
X0023500Y0022100D02*
Y0021900D01*
X0023750Y0021850D02*
X0023500Y0022100D01*
X0024000D02*
X0023750Y0021850D01*
X0024000Y0021900D02*
Y0022100D01*
X0023750Y0022150D02*
X0024000Y0021900D01*
X0023500D02*
X0023750Y0022150D01*
X0032250Y0024850D02*
Y0024650D01*
X0032500Y0024600D02*
X0032250Y0024850D01*
X0032750D02*
X0032500Y0024600D01*
X0032750Y0024650D02*
Y0024850D01*
X0032500Y0024900D02*
X0032750Y0024650D01*
X0032250D02*
X0032500Y0024900D01*
X0032250Y0028600D02*
Y0028400D01*
X0032500Y0028350D02*
X0032250Y0028600D01*
X0032750D02*
X0032500Y0028350D01*
X0032750Y0028400D02*
Y0028600D01*
X0032500Y0028650D02*
X0032750Y0028400D01*
X0032250D02*
X0032500Y0028650D01*
X0017750Y0025350D02*
Y0025150D01*
X0018000Y0025100D02*
X0017750Y0025350D01*
X0018250D02*
X0018000Y0025100D01*
X0018250Y0025150D02*
Y0025350D01*
X0018000Y0025400D02*
X0018250Y0025150D01*
X0017750D02*
X0018000Y0025400D01*
X0007325Y0002250D02*
Y0002000D01*
X0007575Y0002250D02*
X0007325D01*
X0007575Y0001750D02*
Y0002250D01*
X0007825Y0001750D02*
X0007575D01*
X0007825Y0002000D02*
Y0001750D01*
X0007325Y0002000D02*
X0007825D01*
X0007325Y0003600D02*
Y0003400D01*
X0007475Y0003750D02*
X0007325Y0003600D01*
X0007675Y0003750D02*
X0007475D01*
X0007825Y0003600D02*
X0007675Y0003750D01*
X0007825Y0003400D02*
Y0003600D01*
X0007675Y0003250D02*
X0007825Y0003400D01*
X0007475Y0003250D02*
X0007675D01*
X0007325Y0003400D02*
X0007475Y0003250D01*
X0007575Y0005150D02*
X0007325Y0004900D01*
X0007825D02*
X0007575Y0005150D01*
X0007325Y0004900D02*
X0007825D01*
X0007325Y0006600D02*
Y0006400D01*
X0007575Y0006350D02*
X0007325Y0006600D01*
X0007825D02*
X0007575Y0006350D01*
X0007825Y0006400D02*
Y0006600D01*
X0007575Y0006650D02*
X0007825Y0006400D01*
X0007325D02*
X0007575Y0006650D01*
X0043050Y-0000800D02*
X0005700D01*
X0043000Y-0000750D02*
X0005750D01*
X0043000Y0001250D02*
X0005750D01*
X0043000Y0002750D02*
X0005750D01*
X0043000Y0004250D02*
X0005750D01*
X0043000Y0005750D02*
X0005750D01*
X0043000Y0007250D02*
X0005750D01*
X0043000Y0007300D02*
X0005750D01*
X0043000Y0009250D02*
X0005750D01*
X0043000Y0009300D02*
X0005750D01*
X0043000Y0011250D02*
X0005750D01*
X0043050Y0011300D02*
X0005700D01*
X0043050Y-0000750D02*
Y0011250D01*
X0043000Y-0000750D02*
Y0011250D01*
X0031458Y-0000750D02*
Y0009250D01*
X0025908Y-0000750D02*
Y0009250D01*
X0017842Y0001250D02*
Y0009250D01*
X0009450Y0001250D02*
Y0009250D01*
X0009400Y0001250D02*
Y0009250D01*
X0005700Y-0000750D02*
Y0011250D01*
X0005750Y-0000750D02*
Y0011250D01*
X0037250Y0021850D02*
Y0021650D01*
X0037500Y0021600D02*
X0037250Y0021850D01*
X0037750D02*
X0037500Y0021600D01*
X0037750Y0021650D02*
Y0021850D01*
X0037500Y0021900D02*
X0037750Y0021650D01*
X0037250D02*
X0037500Y0021900D01*
X0040750Y0021850D02*
Y0021650D01*
X0041000Y0021600D02*
X0040750Y0021850D01*
X0041250D02*
X0041000Y0021600D01*
X0041250Y0021650D02*
Y0021850D01*
X0041000Y0021900D02*
X0041250Y0021650D01*
X0040750D02*
X0041000Y0021900D01*
X0039625Y0039100D02*
Y0038900D01*
X0039875Y0038850D02*
X0039625Y0039100D01*
X0040125D02*
X0039875Y0038850D01*
X0040125Y0038900D02*
Y0039100D01*
X0039875Y0039150D02*
X0040125Y0038900D01*
X0039625D02*
X0039875Y0039150D01*
X0044000Y0032100D02*
Y0031900D01*
X0044250Y0031850D02*
X0044000Y0032100D01*
X0044500D02*
X0044250Y0031850D01*
X0044500Y0031900D02*
Y0032100D01*
X0044250Y0032150D02*
X0044500Y0031900D01*
X0044000D02*
X0044250Y0032150D01*
X0031500Y0041350D02*
Y0041150D01*
X0031750Y0041100D02*
X0031500Y0041350D01*
X0032000D02*
X0031750Y0041100D01*
X0032000Y0041150D02*
Y0041350D01*
X0031750Y0041400D02*
X0032000Y0041150D01*
X0031500D02*
X0031750Y0041400D01*
X0044250Y0015600D02*
Y0015400D01*
X0044500Y0015350D02*
X0044250Y0015600D01*
X0044750D02*
X0044500Y0015350D01*
X0044750Y0015400D02*
Y0015600D01*
X0044500Y0015650D02*
X0044750Y0015400D01*
X0044250D02*
X0044500Y0015650D01*
X0032750Y0033350D02*
Y0033150D01*
X0033000Y0033100D02*
X0032750Y0033350D01*
X0033250D02*
X0033000Y0033100D01*
X0033250Y0033150D02*
Y0033350D01*
X0033000Y0033400D02*
X0033250Y0033150D01*
X0032750D02*
X0033000Y0033400D01*
X0011000Y0022350D02*
Y0022150D01*
X0011250Y0022100D02*
X0011000Y0022350D01*
X0011500D02*
X0011250Y0022100D01*
X0011500Y0022150D02*
Y0022350D01*
X0011250Y0022400D02*
X0011500Y0022150D01*
X0011000D02*
X0011250Y0022400D01*
X0019250Y0038850D02*
Y0038650D01*
X0019500Y0038600D02*
X0019250Y0038850D01*
X0019750D02*
X0019500Y0038600D01*
X0019750Y0038650D02*
Y0038850D01*
X0019500Y0038900D02*
X0019750Y0038650D01*
X0019250D02*
X0019500Y0038900D01*
X0014000Y0015100D02*
Y0014900D01*
X0014250Y0014850D02*
X0014000Y0015100D01*
X0014500D02*
X0014250Y0014850D01*
X0014500Y0014900D02*
Y0015100D01*
X0014250Y0015150D02*
X0014500Y0014900D01*
X0014000D02*
X0014250Y0015150D01*
X0012500Y0036600D02*
Y0036400D01*
X0012750Y0036350D02*
X0012500Y0036600D01*
X0013000D02*
X0012750Y0036350D01*
X0013000Y0036400D02*
Y0036600D01*
X0012750Y0036650D02*
X0013000Y0036400D01*
X0012500D02*
X0012750Y0036650D01*
X0007500Y0048350D02*
Y0048150D01*
X0007750Y0048100D02*
X0007500Y0048350D01*
X0008000D02*
X0007750Y0048100D01*
X0008000Y0048150D02*
Y0048350D01*
X0007750Y0048400D02*
X0008000Y0048150D01*
X0007500D02*
X0007750Y0048400D01*
X0016750Y0023100D02*
Y0022900D01*
X0017000Y0022850D02*
X0016750Y0023100D01*
X0017250D02*
X0017000Y0022850D01*
X0017250Y0022900D02*
Y0023100D01*
X0017000Y0023150D02*
X0017250Y0022900D01*
X0016750D02*
X0017000Y0023150D01*
X0031750Y0017100D02*
Y0016900D01*
X0032000Y0016850D02*
X0031750Y0017100D01*
X0032250D02*
X0032000Y0016850D01*
X0032250Y0016900D02*
Y0017100D01*
X0032000Y0017150D02*
X0032250Y0016900D01*
X0031750D02*
X0032000Y0017150D01*
X0036750Y0045850D02*
Y0045650D01*
X0037000Y0045600D02*
X0036750Y0045850D01*
X0037250D02*
X0037000Y0045600D01*
X0037250Y0045650D02*
Y0045850D01*
X0037000Y0045900D02*
X0037250Y0045650D01*
X0036750D02*
X0037000Y0045900D01*
X0007500Y0019725D02*
Y0019525D01*
X0007750Y0019475D02*
X0007500Y0019725D01*
X0008000D02*
X0007750Y0019475D01*
X0008000Y0019525D02*
Y0019725D01*
X0007750Y0019775D02*
X0008000Y0019525D01*
X0007500D02*
X0007750Y0019775D01*
X0042500Y0050600D02*
Y0050400D01*
X0042750Y0050350D02*
X0042500Y0050600D01*
X0043000D02*
X0042750Y0050350D01*
X0043000Y0050400D02*
Y0050600D01*
X0042750Y0050650D02*
X0043000Y0050400D01*
X0042500D02*
X0042750Y0050650D01*
X0011000Y0033600D02*
Y0033400D01*
X0011250Y0033350D02*
X0011000Y0033600D01*
X0011500D02*
X0011250Y0033350D01*
X0011500Y0033400D02*
Y0033600D01*
X0011250Y0033650D02*
X0011500Y0033400D01*
X0011000D02*
X0011250Y0033650D01*
X0011000Y0030600D02*
Y0030400D01*
X0011250Y0030350D02*
X0011000Y0030600D01*
X0011500D02*
X0011250Y0030350D01*
X0011500Y0030400D02*
Y0030600D01*
X0011250Y0030650D02*
X0011500Y0030400D01*
X0011000D02*
X0011250Y0030650D01*
X0011000Y0027600D02*
Y0027400D01*
X0011250Y0027350D02*
X0011000Y0027600D01*
X0011500D02*
X0011250Y0027350D01*
X0011500Y0027400D02*
Y0027600D01*
X0011250Y0027650D02*
X0011500Y0027400D01*
X0011000D02*
X0011250Y0027650D01*
X0014000Y0027600D02*
Y0027400D01*
X0014250Y0027350D02*
X0014000Y0027600D01*
X0014500D02*
X0014250Y0027350D01*
X0014500Y0027400D02*
Y0027600D01*
X0014250Y0027650D02*
X0014500Y0027400D01*
X0014000D02*
X0014250Y0027650D01*
X0014000Y0030600D02*
Y0030400D01*
X0014250Y0030350D02*
X0014000Y0030600D01*
X0014500D02*
X0014250Y0030350D01*
X0014500Y0030400D02*
Y0030600D01*
X0014250Y0030650D02*
X0014500Y0030400D01*
X0014000D02*
X0014250Y0030650D01*
X0014000Y0033600D02*
Y0033400D01*
X0014250Y0033350D02*
X0014000Y0033600D01*
X0014500D02*
X0014250Y0033350D01*
X0014500Y0033400D02*
Y0033600D01*
X0014250Y0033650D02*
X0014500Y0033400D01*
X0014000D02*
X0014250Y0033650D01*
X0025250Y0023100D02*
Y0022900D01*
X0025500Y0022850D02*
X0025250Y0023100D01*
X0025750D02*
X0025500Y0022850D01*
X0025750Y0022900D02*
Y0023100D01*
X0025500Y0023150D02*
X0025750Y0022900D01*
X0025250D02*
X0025500Y0023150D01*
X0025250Y0024100D02*
Y0023900D01*
X0025500Y0023850D02*
X0025250Y0024100D01*
X0025750D02*
X0025500Y0023850D01*
X0025750Y0023900D02*
Y0024100D01*
X0025500Y0024150D02*
X0025750Y0023900D01*
X0025250D02*
X0025500Y0024150D01*
X0026250Y0023100D02*
Y0022900D01*
X0026500Y0022850D02*
X0026250Y0023100D01*
X0026750D02*
X0026500Y0022850D01*
X0026750Y0022900D02*
Y0023100D01*
X0026500Y0023150D02*
X0026750Y0022900D01*
X0026250D02*
X0026500Y0023150D01*
X0026250Y0024100D02*
Y0023900D01*
X0026500Y0023850D02*
X0026250Y0024100D01*
X0026750D02*
X0026500Y0023850D01*
X0026750Y0023900D02*
Y0024100D01*
X0026500Y0024150D02*
X0026750Y0023900D01*
X0026250D02*
X0026500Y0024150D01*
X0027250Y0023100D02*
Y0022900D01*
X0027500Y0022850D02*
X0027250Y0023100D01*
X0027750D02*
X0027500Y0022850D01*
X0027750Y0022900D02*
Y0023100D01*
X0027500Y0023150D02*
X0027750Y0022900D01*
X0027250D02*
X0027500Y0023150D01*
X0027250Y0024100D02*
Y0023900D01*
X0027500Y0023850D02*
X0027250Y0024100D01*
X0027750D02*
X0027500Y0023850D01*
X0027750Y0023900D02*
Y0024100D01*
X0027500Y0024150D02*
X0027750Y0023900D01*
X0027250D02*
X0027500Y0024150D01*
X0028250Y0023100D02*
Y0022900D01*
X0028500Y0022850D02*
X0028250Y0023100D01*
X0028750D02*
X0028500Y0022850D01*
X0028750Y0022900D02*
Y0023100D01*
X0028500Y0023150D02*
X0028750Y0022900D01*
X0028250D02*
X0028500Y0023150D01*
X0028250Y0024100D02*
Y0023900D01*
X0028500Y0023850D02*
X0028250Y0024100D01*
X0028750D02*
X0028500Y0023850D01*
X0028750Y0023900D02*
Y0024100D01*
X0028500Y0024150D02*
X0028750Y0023900D01*
X0028250D02*
X0028500Y0024150D01*
X0029250Y0023100D02*
Y0022900D01*
X0029500Y0022850D02*
X0029250Y0023100D01*
X0029750D02*
X0029500Y0022850D01*
X0029750Y0022900D02*
Y0023100D01*
X0029500Y0023150D02*
X0029750Y0022900D01*
X0029250D02*
X0029500Y0023150D01*
X0029250Y0024100D02*
Y0023900D01*
X0029500Y0023850D02*
X0029250Y0024100D01*
X0029750D02*
X0029500Y0023850D01*
X0029750Y0023900D02*
Y0024100D01*
X0029500Y0024150D02*
X0029750Y0023900D01*
X0029250D02*
X0029500Y0024150D01*
X0030250Y0023100D02*
Y0022900D01*
X0030500Y0022850D02*
X0030250Y0023100D01*
X0030750D02*
X0030500Y0022850D01*
X0030750Y0022900D02*
Y0023100D01*
X0030500Y0023150D02*
X0030750Y0022900D01*
X0030250D02*
X0030500Y0023150D01*
X0031250Y0024100D02*
Y0023900D01*
X0031500Y0023850D02*
X0031250Y0024100D01*
X0031750D02*
X0031500Y0023850D01*
X0031750Y0023900D02*
Y0024100D01*
X0031500Y0024150D02*
X0031750Y0023900D01*
X0031250D02*
X0031500Y0024150D01*
X0030250Y0024100D02*
Y0023900D01*
X0030500Y0023850D02*
X0030250Y0024100D01*
X0030750D02*
X0030500Y0023850D01*
X0030750Y0023900D02*
Y0024100D01*
X0030500Y0024150D02*
X0030750Y0023900D01*
X0030250D02*
X0030500Y0024150D01*
X0031250Y0025100D02*
Y0024900D01*
X0031500Y0024850D02*
X0031250Y0025100D01*
X0031750D02*
X0031500Y0024850D01*
X0031750Y0024900D02*
Y0025100D01*
X0031500Y0025150D02*
X0031750Y0024900D01*
X0031250D02*
X0031500Y0025150D01*
X0030250Y0025100D02*
Y0024900D01*
X0030500Y0024850D02*
X0030250Y0025100D01*
X0030750D02*
X0030500Y0024850D01*
X0030750Y0024900D02*
Y0025100D01*
X0030500Y0025150D02*
X0030750Y0024900D01*
X0030250D02*
X0030500Y0025150D01*
X0031250Y0026100D02*
Y0025900D01*
X0031500Y0025850D02*
X0031250Y0026100D01*
X0031750D02*
X0031500Y0025850D01*
X0031750Y0025900D02*
Y0026100D01*
X0031500Y0026150D02*
X0031750Y0025900D01*
X0031250D02*
X0031500Y0026150D01*
X0030250Y0026100D02*
Y0025900D01*
X0030500Y0025850D02*
X0030250Y0026100D01*
X0030750D02*
X0030500Y0025850D01*
X0030750Y0025900D02*
Y0026100D01*
X0030500Y0026150D02*
X0030750Y0025900D01*
X0030250D02*
X0030500Y0026150D01*
X0031250Y0027100D02*
Y0026900D01*
X0031500Y0026850D02*
X0031250Y0027100D01*
X0031750D02*
X0031500Y0026850D01*
X0031750Y0026900D02*
Y0027100D01*
X0031500Y0027150D02*
X0031750Y0026900D01*
X0031250D02*
X0031500Y0027150D01*
X0030250Y0027100D02*
Y0026900D01*
X0030500Y0026850D02*
X0030250Y0027100D01*
X0030750D02*
X0030500Y0026850D01*
X0030750Y0026900D02*
Y0027100D01*
X0030500Y0027150D02*
X0030750Y0026900D01*
X0030250D02*
X0030500Y0027150D01*
X0031250Y0028100D02*
Y0027900D01*
X0031500Y0027850D02*
X0031250Y0028100D01*
X0031750D02*
X0031500Y0027850D01*
X0031750Y0027900D02*
Y0028100D01*
X0031500Y0028150D02*
X0031750Y0027900D01*
X0031250D02*
X0031500Y0028150D01*
X0030250Y0028100D02*
Y0027900D01*
X0030500Y0027850D02*
X0030250Y0028100D01*
X0030750D02*
X0030500Y0027850D01*
X0030750Y0027900D02*
Y0028100D01*
X0030500Y0028150D02*
X0030750Y0027900D01*
X0030250D02*
X0030500Y0028150D01*
X0031250Y0029100D02*
Y0028900D01*
X0031500Y0028850D02*
X0031250Y0029100D01*
X0031750D02*
X0031500Y0028850D01*
X0031750Y0028900D02*
Y0029100D01*
X0031500Y0029150D02*
X0031750Y0028900D01*
X0031250D02*
X0031500Y0029150D01*
X0030250Y0029100D02*
Y0028900D01*
X0030500Y0028850D02*
X0030250Y0029100D01*
X0030750D02*
X0030500Y0028850D01*
X0030750Y0028900D02*
Y0029100D01*
X0030500Y0029150D02*
X0030750Y0028900D01*
X0030250D02*
X0030500Y0029150D01*
X0031250Y0030100D02*
Y0029900D01*
X0031500Y0029850D02*
X0031250Y0030100D01*
X0031750D02*
X0031500Y0029850D01*
X0031750Y0029900D02*
Y0030100D01*
X0031500Y0030150D02*
X0031750Y0029900D01*
X0031250D02*
X0031500Y0030150D01*
X0030250Y0030100D02*
Y0029900D01*
X0030500Y0029850D02*
X0030250Y0030100D01*
X0030750D02*
X0030500Y0029850D01*
X0030750Y0029900D02*
Y0030100D01*
X0030500Y0030150D02*
X0030750Y0029900D01*
X0030250D02*
X0030500Y0030150D01*
X0031250Y0031100D02*
Y0030900D01*
X0031500Y0030850D02*
X0031250Y0031100D01*
X0031750D02*
X0031500Y0030850D01*
X0031750Y0030900D02*
Y0031100D01*
X0031500Y0031150D02*
X0031750Y0030900D01*
X0031250D02*
X0031500Y0031150D01*
X0030250Y0031100D02*
Y0030900D01*
X0030500Y0030850D02*
X0030250Y0031100D01*
X0030750D02*
X0030500Y0030850D01*
X0030750Y0030900D02*
Y0031100D01*
X0030500Y0031150D02*
X0030750Y0030900D01*
X0030250D02*
X0030500Y0031150D01*
X0031250Y0032100D02*
Y0031900D01*
X0031500Y0031850D02*
X0031250Y0032100D01*
X0031750D02*
X0031500Y0031850D01*
X0031750Y0031900D02*
Y0032100D01*
X0031500Y0032150D02*
X0031750Y0031900D01*
X0031250D02*
X0031500Y0032150D01*
X0030250Y0032100D02*
Y0031900D01*
X0030500Y0031850D02*
X0030250Y0032100D01*
X0030750D02*
X0030500Y0031850D01*
X0030750Y0031900D02*
Y0032100D01*
X0030500Y0032150D02*
X0030750Y0031900D01*
X0030250D02*
X0030500Y0032150D01*
X0031250Y0033100D02*
Y0032900D01*
X0031500Y0032850D02*
X0031250Y0033100D01*
X0031750D02*
X0031500Y0032850D01*
X0031750Y0032900D02*
Y0033100D01*
X0031500Y0033150D02*
X0031750Y0032900D01*
X0031250D02*
X0031500Y0033150D01*
X0030250Y0033100D02*
Y0032900D01*
X0030500Y0032850D02*
X0030250Y0033100D01*
X0030750D02*
X0030500Y0032850D01*
X0030750Y0032900D02*
Y0033100D01*
X0030500Y0033150D02*
X0030750Y0032900D01*
X0030250D02*
X0030500Y0033150D01*
X0031250Y0034100D02*
Y0033900D01*
X0031500Y0033850D02*
X0031250Y0034100D01*
X0031750D02*
X0031500Y0033850D01*
X0031750Y0033900D02*
Y0034100D01*
X0031500Y0034150D02*
X0031750Y0033900D01*
X0031250D02*
X0031500Y0034150D01*
X0030250Y0035100D02*
Y0034900D01*
X0030500Y0034850D02*
X0030250Y0035100D01*
X0030750D02*
X0030500Y0034850D01*
X0030750Y0034900D02*
Y0035100D01*
X0030500Y0035150D02*
X0030750Y0034900D01*
X0030250D02*
X0030500Y0035150D01*
X0030250Y0034100D02*
Y0033900D01*
X0030500Y0033850D02*
X0030250Y0034100D01*
X0030750D02*
X0030500Y0033850D01*
X0030750Y0033900D02*
Y0034100D01*
X0030500Y0034150D02*
X0030750Y0033900D01*
X0030250D02*
X0030500Y0034150D01*
X0029250Y0035100D02*
Y0034900D01*
X0029500Y0034850D02*
X0029250Y0035100D01*
X0029750D02*
X0029500Y0034850D01*
X0029750Y0034900D02*
Y0035100D01*
X0029500Y0035150D02*
X0029750Y0034900D01*
X0029250D02*
X0029500Y0035150D01*
X0029250Y0034100D02*
Y0033900D01*
X0029500Y0033850D02*
X0029250Y0034100D01*
X0029750D02*
X0029500Y0033850D01*
X0029750Y0033900D02*
Y0034100D01*
X0029500Y0034150D02*
X0029750Y0033900D01*
X0029250D02*
X0029500Y0034150D01*
X0028250Y0035100D02*
Y0034900D01*
X0028500Y0034850D02*
X0028250Y0035100D01*
X0028750D02*
X0028500Y0034850D01*
X0028750Y0034900D02*
Y0035100D01*
X0028500Y0035150D02*
X0028750Y0034900D01*
X0028250D02*
X0028500Y0035150D01*
X0028250Y0034100D02*
Y0033900D01*
X0028500Y0033850D02*
X0028250Y0034100D01*
X0028750D02*
X0028500Y0033850D01*
X0028750Y0033900D02*
Y0034100D01*
X0028500Y0034150D02*
X0028750Y0033900D01*
X0028250D02*
X0028500Y0034150D01*
X0027250Y0035100D02*
Y0034900D01*
X0027500Y0034850D02*
X0027250Y0035100D01*
X0027750D02*
X0027500Y0034850D01*
X0027750Y0034900D02*
Y0035100D01*
X0027500Y0035150D02*
X0027750Y0034900D01*
X0027250D02*
X0027500Y0035150D01*
X0027250Y0034100D02*
Y0033900D01*
X0027500Y0033850D02*
X0027250Y0034100D01*
X0027750D02*
X0027500Y0033850D01*
X0027750Y0033900D02*
Y0034100D01*
X0027500Y0034150D02*
X0027750Y0033900D01*
X0027250D02*
X0027500Y0034150D01*
X0026250Y0035100D02*
Y0034900D01*
X0026500Y0034850D02*
X0026250Y0035100D01*
X0026750D02*
X0026500Y0034850D01*
X0026750Y0034900D02*
Y0035100D01*
X0026500Y0035150D02*
X0026750Y0034900D01*
X0026250D02*
X0026500Y0035150D01*
X0026250Y0034100D02*
Y0033900D01*
X0026500Y0033850D02*
X0026250Y0034100D01*
X0026750D02*
X0026500Y0033850D01*
X0026750Y0033900D02*
Y0034100D01*
X0026500Y0034150D02*
X0026750Y0033900D01*
X0026250D02*
X0026500Y0034150D01*
X0025250Y0035100D02*
Y0034900D01*
X0025500Y0034850D02*
X0025250Y0035100D01*
X0025750D02*
X0025500Y0034850D01*
X0025750Y0034900D02*
Y0035100D01*
X0025500Y0035150D02*
X0025750Y0034900D01*
X0025250D02*
X0025500Y0035150D01*
X0025250Y0034100D02*
Y0033900D01*
X0025500Y0033850D02*
X0025250Y0034100D01*
X0025750D02*
X0025500Y0033850D01*
X0025750Y0033900D02*
Y0034100D01*
X0025500Y0034150D02*
X0025750Y0033900D01*
X0025250D02*
X0025500Y0034150D01*
X0024250Y0035100D02*
Y0034900D01*
X0024500Y0034850D02*
X0024250Y0035100D01*
X0024750D02*
X0024500Y0034850D01*
X0024750Y0034900D02*
Y0035100D01*
X0024500Y0035150D02*
X0024750Y0034900D01*
X0024250D02*
X0024500Y0035150D01*
X0024250Y0034100D02*
Y0033900D01*
X0024500Y0033850D02*
X0024250Y0034100D01*
X0024750D02*
X0024500Y0033850D01*
X0024750Y0033900D02*
Y0034100D01*
X0024500Y0034150D02*
X0024750Y0033900D01*
X0024250D02*
X0024500Y0034150D01*
X0023250Y0035100D02*
Y0034900D01*
X0023500Y0034850D02*
X0023250Y0035100D01*
X0023750D02*
X0023500Y0034850D01*
X0023750Y0034900D02*
Y0035100D01*
X0023500Y0035150D02*
X0023750Y0034900D01*
X0023250D02*
X0023500Y0035150D01*
X0023250Y0034100D02*
Y0033900D01*
X0023500Y0033850D02*
X0023250Y0034100D01*
X0023750D02*
X0023500Y0033850D01*
X0023750Y0033900D02*
Y0034100D01*
X0023500Y0034150D02*
X0023750Y0033900D01*
X0023250D02*
X0023500Y0034150D01*
X0022250Y0035100D02*
Y0034900D01*
X0022500Y0034850D02*
X0022250Y0035100D01*
X0022750D02*
X0022500Y0034850D01*
X0022750Y0034900D02*
Y0035100D01*
X0022500Y0035150D02*
X0022750Y0034900D01*
X0022250D02*
X0022500Y0035150D01*
X0022250Y0034100D02*
Y0033900D01*
X0022500Y0033850D02*
X0022250Y0034100D01*
X0022750D02*
X0022500Y0033850D01*
X0022750Y0033900D02*
Y0034100D01*
X0022500Y0034150D02*
X0022750Y0033900D01*
X0022250D02*
X0022500Y0034150D01*
X0021250Y0035100D02*
Y0034900D01*
X0021500Y0034850D02*
X0021250Y0035100D01*
X0021750D02*
X0021500Y0034850D01*
X0021750Y0034900D02*
Y0035100D01*
X0021500Y0035150D02*
X0021750Y0034900D01*
X0021250D02*
X0021500Y0035150D01*
X0021250Y0034100D02*
Y0033900D01*
X0021500Y0033850D02*
X0021250Y0034100D01*
X0021750D02*
X0021500Y0033850D01*
X0021750Y0033900D02*
Y0034100D01*
X0021500Y0034150D02*
X0021750Y0033900D01*
X0021250D02*
X0021500Y0034150D01*
X0020250Y0035100D02*
Y0034900D01*
X0020500Y0034850D02*
X0020250Y0035100D01*
X0020750D02*
X0020500Y0034850D01*
X0020750Y0034900D02*
Y0035100D01*
X0020500Y0035150D02*
X0020750Y0034900D01*
X0020250D02*
X0020500Y0035150D01*
X0019250Y0034100D02*
Y0033900D01*
X0019500Y0033850D02*
X0019250Y0034100D01*
X0019750D02*
X0019500Y0033850D01*
X0019750Y0033900D02*
Y0034100D01*
X0019500Y0034150D02*
X0019750Y0033900D01*
X0019250D02*
X0019500Y0034150D01*
X0020250Y0034100D02*
Y0033900D01*
X0020500Y0033850D02*
X0020250Y0034100D01*
X0020750D02*
X0020500Y0033850D01*
X0020750Y0033900D02*
Y0034100D01*
X0020500Y0034150D02*
X0020750Y0033900D01*
X0020250D02*
X0020500Y0034150D01*
X0019250Y0033100D02*
Y0032900D01*
X0019500Y0032850D02*
X0019250Y0033100D01*
X0019750D02*
X0019500Y0032850D01*
X0019750Y0032900D02*
Y0033100D01*
X0019500Y0033150D02*
X0019750Y0032900D01*
X0019250D02*
X0019500Y0033150D01*
X0020250Y0033100D02*
Y0032900D01*
X0020500Y0032850D02*
X0020250Y0033100D01*
X0020750D02*
X0020500Y0032850D01*
X0020750Y0032900D02*
Y0033100D01*
X0020500Y0033150D02*
X0020750Y0032900D01*
X0020250D02*
X0020500Y0033150D01*
X0019250Y0032100D02*
Y0031900D01*
X0019500Y0031850D02*
X0019250Y0032100D01*
X0019750D02*
X0019500Y0031850D01*
X0019750Y0031900D02*
Y0032100D01*
X0019500Y0032150D02*
X0019750Y0031900D01*
X0019250D02*
X0019500Y0032150D01*
X0020250Y0032100D02*
Y0031900D01*
X0020500Y0031850D02*
X0020250Y0032100D01*
X0020750D02*
X0020500Y0031850D01*
X0020750Y0031900D02*
Y0032100D01*
X0020500Y0032150D02*
X0020750Y0031900D01*
X0020250D02*
X0020500Y0032150D01*
X0019250Y0031100D02*
Y0030900D01*
X0019500Y0030850D02*
X0019250Y0031100D01*
X0019750D02*
X0019500Y0030850D01*
X0019750Y0030900D02*
Y0031100D01*
X0019500Y0031150D02*
X0019750Y0030900D01*
X0019250D02*
X0019500Y0031150D01*
X0020250Y0031100D02*
Y0030900D01*
X0020500Y0030850D02*
X0020250Y0031100D01*
X0020750D02*
X0020500Y0030850D01*
X0020750Y0030900D02*
Y0031100D01*
X0020500Y0031150D02*
X0020750Y0030900D01*
X0020250D02*
X0020500Y0031150D01*
X0019250Y0030100D02*
Y0029900D01*
X0019500Y0029850D02*
X0019250Y0030100D01*
X0019750D02*
X0019500Y0029850D01*
X0019750Y0029900D02*
Y0030100D01*
X0019500Y0030150D02*
X0019750Y0029900D01*
X0019250D02*
X0019500Y0030150D01*
X0020250Y0030100D02*
Y0029900D01*
X0020500Y0029850D02*
X0020250Y0030100D01*
X0020750D02*
X0020500Y0029850D01*
X0020750Y0029900D02*
Y0030100D01*
X0020500Y0030150D02*
X0020750Y0029900D01*
X0020250D02*
X0020500Y0030150D01*
X0019250Y0029100D02*
Y0028900D01*
X0019500Y0028850D02*
X0019250Y0029100D01*
X0019750D02*
X0019500Y0028850D01*
X0019750Y0028900D02*
Y0029100D01*
X0019500Y0029150D02*
X0019750Y0028900D01*
X0019250D02*
X0019500Y0029150D01*
X0020250Y0029100D02*
Y0028900D01*
X0020500Y0028850D02*
X0020250Y0029100D01*
X0020750D02*
X0020500Y0028850D01*
X0020750Y0028900D02*
Y0029100D01*
X0020500Y0029150D02*
X0020750Y0028900D01*
X0020250D02*
X0020500Y0029150D01*
X0019250Y0028100D02*
Y0027900D01*
X0019500Y0027850D02*
X0019250Y0028100D01*
X0019750D02*
X0019500Y0027850D01*
X0019750Y0027900D02*
Y0028100D01*
X0019500Y0028150D02*
X0019750Y0027900D01*
X0019250D02*
X0019500Y0028150D01*
X0020250Y0028100D02*
Y0027900D01*
X0020500Y0027850D02*
X0020250Y0028100D01*
X0020750D02*
X0020500Y0027850D01*
X0020750Y0027900D02*
Y0028100D01*
X0020500Y0028150D02*
X0020750Y0027900D01*
X0020250D02*
X0020500Y0028150D01*
X0019250Y0027100D02*
Y0026900D01*
X0019500Y0026850D02*
X0019250Y0027100D01*
X0019750D02*
X0019500Y0026850D01*
X0019750Y0026900D02*
Y0027100D01*
X0019500Y0027150D02*
X0019750Y0026900D01*
X0019250D02*
X0019500Y0027150D01*
X0020250Y0027100D02*
Y0026900D01*
X0020500Y0026850D02*
X0020250Y0027100D01*
X0020750D02*
X0020500Y0026850D01*
X0020750Y0026900D02*
Y0027100D01*
X0020500Y0027150D02*
X0020750Y0026900D01*
X0020250D02*
X0020500Y0027150D01*
X0019250Y0026100D02*
Y0025900D01*
X0019500Y0025850D02*
X0019250Y0026100D01*
X0019750D02*
X0019500Y0025850D01*
X0019750Y0025900D02*
Y0026100D01*
X0019500Y0026150D02*
X0019750Y0025900D01*
X0019250D02*
X0019500Y0026150D01*
X0020250Y0026100D02*
Y0025900D01*
X0020500Y0025850D02*
X0020250Y0026100D01*
X0020750D02*
X0020500Y0025850D01*
X0020750Y0025900D02*
Y0026100D01*
X0020500Y0026150D02*
X0020750Y0025900D01*
X0020250D02*
X0020500Y0026150D01*
X0019250Y0025100D02*
Y0024900D01*
X0019500Y0024850D02*
X0019250Y0025100D01*
X0019750D02*
X0019500Y0024850D01*
X0019750Y0024900D02*
Y0025100D01*
X0019500Y0025150D02*
X0019750Y0024900D01*
X0019250D02*
X0019500Y0025150D01*
X0020250Y0025100D02*
Y0024900D01*
X0020500Y0024850D02*
X0020250Y0025100D01*
X0020750D02*
X0020500Y0024850D01*
X0020750Y0024900D02*
Y0025100D01*
X0020500Y0025150D02*
X0020750Y0024900D01*
X0020250D02*
X0020500Y0025150D01*
X0019250Y0024100D02*
Y0023900D01*
X0019500Y0023850D02*
X0019250Y0024100D01*
X0019750D02*
X0019500Y0023850D01*
X0019750Y0023900D02*
Y0024100D01*
X0019500Y0024150D02*
X0019750Y0023900D01*
X0019250D02*
X0019500Y0024150D01*
X0020250Y0023100D02*
Y0022900D01*
X0020500Y0022850D02*
X0020250Y0023100D01*
X0020750D02*
X0020500Y0022850D01*
X0020750Y0022900D02*
Y0023100D01*
X0020500Y0023150D02*
X0020750Y0022900D01*
X0020250D02*
X0020500Y0023150D01*
X0020250Y0024100D02*
Y0023900D01*
X0020500Y0023850D02*
X0020250Y0024100D01*
X0020750D02*
X0020500Y0023850D01*
X0020750Y0023900D02*
Y0024100D01*
X0020500Y0024150D02*
X0020750Y0023900D01*
X0020250D02*
X0020500Y0024150D01*
X0021250Y0023100D02*
Y0022900D01*
X0021500Y0022850D02*
X0021250Y0023100D01*
X0021750D02*
X0021500Y0022850D01*
X0021750Y0022900D02*
Y0023100D01*
X0021500Y0023150D02*
X0021750Y0022900D01*
X0021250D02*
X0021500Y0023150D01*
X0021250Y0024100D02*
Y0023900D01*
X0021500Y0023850D02*
X0021250Y0024100D01*
X0021750D02*
X0021500Y0023850D01*
X0021750Y0023900D02*
Y0024100D01*
X0021500Y0024150D02*
X0021750Y0023900D01*
X0021250D02*
X0021500Y0024150D01*
X0022250Y0023100D02*
Y0022900D01*
X0022500Y0022850D02*
X0022250Y0023100D01*
X0022750D02*
X0022500Y0022850D01*
X0022750Y0022900D02*
Y0023100D01*
X0022500Y0023150D02*
X0022750Y0022900D01*
X0022250D02*
X0022500Y0023150D01*
X0022250Y0024100D02*
Y0023900D01*
X0022500Y0023850D02*
X0022250Y0024100D01*
X0022750D02*
X0022500Y0023850D01*
X0022750Y0023900D02*
Y0024100D01*
X0022500Y0024150D02*
X0022750Y0023900D01*
X0022250D02*
X0022500Y0024150D01*
X0023250Y0023100D02*
Y0022900D01*
X0023500Y0022850D02*
X0023250Y0023100D01*
X0023750D02*
X0023500Y0022850D01*
X0023750Y0022900D02*
Y0023100D01*
X0023500Y0023150D02*
X0023750Y0022900D01*
X0023250D02*
X0023500Y0023150D01*
X0023250Y0024100D02*
Y0023900D01*
X0023500Y0023850D02*
X0023250Y0024100D01*
X0023750D02*
X0023500Y0023850D01*
X0023750Y0023900D02*
Y0024100D01*
X0023500Y0024150D02*
X0023750Y0023900D01*
X0023250D02*
X0023500Y0024150D01*
X0024250Y0023100D02*
Y0022900D01*
X0024500Y0022850D02*
X0024250Y0023100D01*
X0024750D02*
X0024500Y0022850D01*
X0024750Y0022900D02*
Y0023100D01*
X0024500Y0023150D02*
X0024750Y0022900D01*
X0024250D02*
X0024500Y0023150D01*
X0024250Y0024100D02*
Y0023900D01*
X0024500Y0023850D02*
X0024250Y0024100D01*
X0024750D02*
X0024500Y0023850D01*
X0024750Y0023900D02*
Y0024100D01*
X0024500Y0024150D02*
X0024750Y0023900D01*
X0024250D02*
X0024500Y0024150D01*
X0038250Y0024100D02*
Y0023900D01*
X0038500Y0023850D02*
X0038250Y0024100D01*
X0038750D02*
X0038500Y0023850D01*
X0038750Y0023900D02*
Y0024100D01*
X0038500Y0024150D02*
X0038750Y0023900D01*
X0038250D02*
X0038500Y0024150D01*
X0038250Y0025100D02*
Y0024900D01*
X0038500Y0024850D02*
X0038250Y0025100D01*
X0038750D02*
X0038500Y0024850D01*
X0038750Y0024900D02*
Y0025100D01*
X0038500Y0025150D02*
X0038750Y0024900D01*
X0038250D02*
X0038500Y0025150D01*
X0038250Y0026100D02*
Y0025900D01*
X0038500Y0025850D02*
X0038250Y0026100D01*
X0038750D02*
X0038500Y0025850D01*
X0038750Y0025900D02*
Y0026100D01*
X0038500Y0026150D02*
X0038750Y0025900D01*
X0038250D02*
X0038500Y0026150D01*
X0038250Y0027100D02*
Y0026900D01*
X0038500Y0026850D02*
X0038250Y0027100D01*
X0038750D02*
X0038500Y0026850D01*
X0038750Y0026900D02*
Y0027100D01*
X0038500Y0027150D02*
X0038750Y0026900D01*
X0038250D02*
X0038500Y0027150D01*
X0038250Y0028100D02*
Y0027900D01*
X0038500Y0027850D02*
X0038250Y0028100D01*
X0038750D02*
X0038500Y0027850D01*
X0038750Y0027900D02*
Y0028100D01*
X0038500Y0028150D02*
X0038750Y0027900D01*
X0038250D02*
X0038500Y0028150D01*
X0038250Y0029100D02*
Y0028900D01*
X0038500Y0028850D02*
X0038250Y0029100D01*
X0038750D02*
X0038500Y0028850D01*
X0038750Y0028900D02*
Y0029100D01*
X0038500Y0029150D02*
X0038750Y0028900D01*
X0038250D02*
X0038500Y0029150D01*
X0038250Y0030100D02*
Y0029900D01*
X0038500Y0029850D02*
X0038250Y0030100D01*
X0038750D02*
X0038500Y0029850D01*
X0038750Y0029900D02*
Y0030100D01*
X0038500Y0030150D02*
X0038750Y0029900D01*
X0038250D02*
X0038500Y0030150D01*
X0038250Y0031100D02*
Y0030900D01*
X0038500Y0030850D02*
X0038250Y0031100D01*
X0038750D02*
X0038500Y0030850D01*
X0038750Y0030900D02*
Y0031100D01*
X0038500Y0031150D02*
X0038750Y0030900D01*
X0038250D02*
X0038500Y0031150D01*
X0038250Y0032100D02*
Y0031900D01*
X0038500Y0031850D02*
X0038250Y0032100D01*
X0038750D02*
X0038500Y0031850D01*
X0038750Y0031900D02*
Y0032100D01*
X0038500Y0032150D02*
X0038750Y0031900D01*
X0038250D02*
X0038500Y0032150D01*
X0038250Y0033100D02*
Y0032900D01*
X0038500Y0032850D02*
X0038250Y0033100D01*
X0038750D02*
X0038500Y0032850D01*
X0038750Y0032900D02*
Y0033100D01*
X0038500Y0033150D02*
X0038750Y0032900D01*
X0038250D02*
X0038500Y0033150D01*
X0038250Y0034100D02*
Y0033900D01*
X0038500Y0033850D02*
X0038250Y0034100D01*
X0038750D02*
X0038500Y0033850D01*
X0038750Y0033900D02*
Y0034100D01*
X0038500Y0034150D02*
X0038750Y0033900D01*
X0038250D02*
X0038500Y0034150D01*
X0038250Y0035100D02*
Y0034900D01*
X0038500Y0034850D02*
X0038250Y0035100D01*
X0038750D02*
X0038500Y0034850D01*
X0038750Y0034900D02*
Y0035100D01*
X0038500Y0035150D02*
X0038750Y0034900D01*
X0038250D02*
X0038500Y0035150D01*
X0038250Y0036100D02*
Y0035900D01*
X0038500Y0035850D02*
X0038250Y0036100D01*
X0038750D02*
X0038500Y0035850D01*
X0038750Y0035900D02*
Y0036100D01*
X0038500Y0036150D02*
X0038750Y0035900D01*
X0038250D02*
X0038500Y0036150D01*
X0038250Y0037100D02*
Y0036900D01*
X0038500Y0036850D02*
X0038250Y0037100D01*
X0038750D02*
X0038500Y0036850D01*
X0038750Y0036900D02*
Y0037100D01*
X0038500Y0037150D02*
X0038750Y0036900D01*
X0038250D02*
X0038500Y0037150D01*
X0035250Y0037100D02*
Y0036900D01*
X0035500Y0036850D02*
X0035250Y0037100D01*
X0035750D02*
X0035500Y0036850D01*
X0035750Y0036900D02*
Y0037100D01*
X0035500Y0037150D02*
X0035750Y0036900D01*
X0035250D02*
X0035500Y0037150D01*
X0035250Y0036100D02*
Y0035900D01*
X0035500Y0035850D02*
X0035250Y0036100D01*
X0035750D02*
X0035500Y0035850D01*
X0035750Y0035900D02*
Y0036100D01*
X0035500Y0036150D02*
X0035750Y0035900D01*
X0035250D02*
X0035500Y0036150D01*
X0035250Y0035100D02*
Y0034900D01*
X0035500Y0034850D02*
X0035250Y0035100D01*
X0035750D02*
X0035500Y0034850D01*
X0035750Y0034900D02*
Y0035100D01*
X0035500Y0035150D02*
X0035750Y0034900D01*
X0035250D02*
X0035500Y0035150D01*
X0035250Y0034100D02*
Y0033900D01*
X0035500Y0033850D02*
X0035250Y0034100D01*
X0035750D02*
X0035500Y0033850D01*
X0035750Y0033900D02*
Y0034100D01*
X0035500Y0034150D02*
X0035750Y0033900D01*
X0035250D02*
X0035500Y0034150D01*
X0035250Y0033100D02*
Y0032900D01*
X0035500Y0032850D02*
X0035250Y0033100D01*
X0035750D02*
X0035500Y0032850D01*
X0035750Y0032900D02*
Y0033100D01*
X0035500Y0033150D02*
X0035750Y0032900D01*
X0035250D02*
X0035500Y0033150D01*
X0035250Y0032100D02*
Y0031900D01*
X0035500Y0031850D02*
X0035250Y0032100D01*
X0035750D02*
X0035500Y0031850D01*
X0035750Y0031900D02*
Y0032100D01*
X0035500Y0032150D02*
X0035750Y0031900D01*
X0035250D02*
X0035500Y0032150D01*
X0035250Y0031100D02*
Y0030900D01*
X0035500Y0030850D02*
X0035250Y0031100D01*
X0035750D02*
X0035500Y0030850D01*
X0035750Y0030900D02*
Y0031100D01*
X0035500Y0031150D02*
X0035750Y0030900D01*
X0035250D02*
X0035500Y0031150D01*
X0035250Y0030100D02*
Y0029900D01*
X0035500Y0029850D02*
X0035250Y0030100D01*
X0035750D02*
X0035500Y0029850D01*
X0035750Y0029900D02*
Y0030100D01*
X0035500Y0030150D02*
X0035750Y0029900D01*
X0035250D02*
X0035500Y0030150D01*
X0035250Y0029100D02*
Y0028900D01*
X0035500Y0028850D02*
X0035250Y0029100D01*
X0035750D02*
X0035500Y0028850D01*
X0035750Y0028900D02*
Y0029100D01*
X0035500Y0029150D02*
X0035750Y0028900D01*
X0035250D02*
X0035500Y0029150D01*
X0035250Y0028100D02*
Y0027900D01*
X0035500Y0027850D02*
X0035250Y0028100D01*
X0035750D02*
X0035500Y0027850D01*
X0035750Y0027900D02*
Y0028100D01*
X0035500Y0028150D02*
X0035750Y0027900D01*
X0035250D02*
X0035500Y0028150D01*
X0035250Y0027100D02*
Y0026900D01*
X0035500Y0026850D02*
X0035250Y0027100D01*
X0035750D02*
X0035500Y0026850D01*
X0035750Y0026900D02*
Y0027100D01*
X0035500Y0027150D02*
X0035750Y0026900D01*
X0035250D02*
X0035500Y0027150D01*
X0035250Y0026100D02*
Y0025900D01*
X0035500Y0025850D02*
X0035250Y0026100D01*
X0035750D02*
X0035500Y0025850D01*
X0035750Y0025900D02*
Y0026100D01*
X0035500Y0026150D02*
X0035750Y0025900D01*
X0035250D02*
X0035500Y0026150D01*
X0035250Y0025100D02*
Y0024900D01*
X0035500Y0024850D02*
X0035250Y0025100D01*
X0035750D02*
X0035500Y0024850D01*
X0035750Y0024900D02*
Y0025100D01*
X0035500Y0025150D02*
X0035750Y0024900D01*
X0035250D02*
X0035500Y0025150D01*
X0035250Y0024100D02*
Y0023900D01*
X0035500Y0023850D02*
X0035250Y0024100D01*
X0035750D02*
X0035500Y0023850D01*
X0035750Y0023900D02*
Y0024100D01*
X0035500Y0024150D02*
X0035750Y0023900D01*
X0035250D02*
X0035500Y0024150D01*
X0033750Y0041350D02*
Y0041150D01*
X0034000Y0041100D02*
X0033750Y0041350D01*
X0034250D02*
X0034000Y0041100D01*
X0034250Y0041150D02*
Y0041350D01*
X0034000Y0041400D02*
X0034250Y0041150D01*
X0033750D02*
X0034000Y0041400D01*
X0034750Y0041350D02*
Y0041150D01*
X0035000Y0041100D02*
X0034750Y0041350D01*
X0035250D02*
X0035000Y0041100D01*
X0035250Y0041150D02*
Y0041350D01*
X0035000Y0041400D02*
X0035250Y0041150D01*
X0034750D02*
X0035000Y0041400D01*
X0035750Y0041350D02*
Y0041150D01*
X0036000Y0041100D02*
X0035750Y0041350D01*
X0036250D02*
X0036000Y0041100D01*
X0036250Y0041150D02*
Y0041350D01*
X0036000Y0041400D02*
X0036250Y0041150D01*
X0035750D02*
X0036000Y0041400D01*
X0036750Y0041350D02*
Y0041150D01*
X0037000Y0041100D02*
X0036750Y0041350D01*
X0037250D02*
X0037000Y0041100D01*
X0037250Y0041150D02*
Y0041350D01*
X0037000Y0041400D02*
X0037250Y0041150D01*
X0036750D02*
X0037000Y0041400D01*
X0037750Y0041350D02*
Y0041150D01*
X0038000Y0041100D02*
X0037750Y0041350D01*
X0038250D02*
X0038000Y0041100D01*
X0038250Y0041150D02*
Y0041350D01*
X0038000Y0041400D02*
X0038250Y0041150D01*
X0037750D02*
X0038000Y0041400D01*
X0038750Y0041350D02*
Y0041150D01*
X0039000Y0041100D02*
X0038750Y0041350D01*
X0039250D02*
X0039000Y0041100D01*
X0039250Y0041150D02*
Y0041350D01*
X0039000Y0041400D02*
X0039250Y0041150D01*
X0038750D02*
X0039000Y0041400D01*
X0039750Y0041350D02*
Y0041150D01*
X0040000Y0041100D02*
X0039750Y0041350D01*
X0040250D02*
X0040000Y0041100D01*
X0040250Y0041150D02*
Y0041350D01*
X0040000Y0041400D02*
X0040250Y0041150D01*
X0039750D02*
X0040000Y0041400D01*
X0039750Y0044350D02*
Y0044150D01*
X0040000Y0044100D02*
X0039750Y0044350D01*
X0040250D02*
X0040000Y0044100D01*
X0040250Y0044150D02*
Y0044350D01*
X0040000Y0044400D02*
X0040250Y0044150D01*
X0039750D02*
X0040000Y0044400D01*
X0038750Y0044350D02*
Y0044150D01*
X0039000Y0044100D02*
X0038750Y0044350D01*
X0039250D02*
X0039000Y0044100D01*
X0039250Y0044150D02*
Y0044350D01*
X0039000Y0044400D02*
X0039250Y0044150D01*
X0038750D02*
X0039000Y0044400D01*
X0037750Y0044350D02*
Y0044150D01*
X0038000Y0044100D02*
X0037750Y0044350D01*
X0038250D02*
X0038000Y0044100D01*
X0038250Y0044150D02*
Y0044350D01*
X0038000Y0044400D02*
X0038250Y0044150D01*
X0037750D02*
X0038000Y0044400D01*
X0036750Y0044350D02*
Y0044150D01*
X0037000Y0044100D02*
X0036750Y0044350D01*
X0037250D02*
X0037000Y0044100D01*
X0037250Y0044150D02*
Y0044350D01*
X0037000Y0044400D02*
X0037250Y0044150D01*
X0036750D02*
X0037000Y0044400D01*
X0035750Y0044350D02*
Y0044150D01*
X0036000Y0044100D02*
X0035750Y0044350D01*
X0036250D02*
X0036000Y0044100D01*
X0036250Y0044150D02*
Y0044350D01*
X0036000Y0044400D02*
X0036250Y0044150D01*
X0035750D02*
X0036000Y0044400D01*
X0034750Y0044350D02*
Y0044150D01*
X0035000Y0044100D02*
X0034750Y0044350D01*
X0035250D02*
X0035000Y0044100D01*
X0035250Y0044150D02*
Y0044350D01*
X0035000Y0044400D02*
X0035250Y0044150D01*
X0034750D02*
X0035000Y0044400D01*
X0033750Y0044350D02*
Y0044150D01*
X0034000Y0044100D02*
X0033750Y0044350D01*
X0034250D02*
X0034000Y0044100D01*
X0034250Y0044150D02*
Y0044350D01*
X0034000Y0044400D02*
X0034250Y0044150D01*
X0033750D02*
X0034000Y0044400D01*
X0012500Y0041350D02*
Y0041150D01*
X0012750Y0041100D02*
X0012500Y0041350D01*
X0013000D02*
X0012750Y0041100D01*
X0013000Y0041150D02*
Y0041350D01*
X0012750Y0041400D02*
X0013000Y0041150D01*
X0012500D02*
X0012750Y0041400D01*
X0013500Y0041350D02*
Y0041150D01*
X0013750Y0041100D02*
X0013500Y0041350D01*
X0014000D02*
X0013750Y0041100D01*
X0014000Y0041150D02*
Y0041350D01*
X0013750Y0041400D02*
X0014000Y0041150D01*
X0013500D02*
X0013750Y0041400D01*
X0014500Y0041350D02*
Y0041150D01*
X0014750Y0041100D02*
X0014500Y0041350D01*
X0015000D02*
X0014750Y0041100D01*
X0015000Y0041150D02*
Y0041350D01*
X0014750Y0041400D02*
X0015000Y0041150D01*
X0014500D02*
X0014750Y0041400D01*
X0015500Y0041350D02*
Y0041150D01*
X0015750Y0041100D02*
X0015500Y0041350D01*
X0016000D02*
X0015750Y0041100D01*
X0016000Y0041150D02*
Y0041350D01*
X0015750Y0041400D02*
X0016000Y0041150D01*
X0015500D02*
X0015750Y0041400D01*
X0016500Y0041350D02*
Y0041150D01*
X0016750Y0041100D02*
X0016500Y0041350D01*
X0017000D02*
X0016750Y0041100D01*
X0017000Y0041150D02*
Y0041350D01*
X0016750Y0041400D02*
X0017000Y0041150D01*
X0016500D02*
X0016750Y0041400D01*
X0017500Y0041350D02*
Y0041150D01*
X0017750Y0041100D02*
X0017500Y0041350D01*
X0018000D02*
X0017750Y0041100D01*
X0018000Y0041150D02*
Y0041350D01*
X0017750Y0041400D02*
X0018000Y0041150D01*
X0017500D02*
X0017750Y0041400D01*
X0018500Y0041350D02*
Y0041150D01*
X0018750Y0041100D02*
X0018500Y0041350D01*
X0019000D02*
X0018750Y0041100D01*
X0019000Y0041150D02*
Y0041350D01*
X0018750Y0041400D02*
X0019000Y0041150D01*
X0018500D02*
X0018750Y0041400D01*
X0018500Y0044350D02*
Y0044150D01*
X0018750Y0044100D02*
X0018500Y0044350D01*
X0019000D02*
X0018750Y0044100D01*
X0019000Y0044150D02*
Y0044350D01*
X0018750Y0044400D02*
X0019000Y0044150D01*
X0018500D02*
X0018750Y0044400D01*
X0017500Y0044350D02*
Y0044150D01*
X0017750Y0044100D02*
X0017500Y0044350D01*
X0018000D02*
X0017750Y0044100D01*
X0018000Y0044150D02*
Y0044350D01*
X0017750Y0044400D02*
X0018000Y0044150D01*
X0017500D02*
X0017750Y0044400D01*
X0016500Y0044350D02*
Y0044150D01*
X0016750Y0044100D02*
X0016500Y0044350D01*
X0017000D02*
X0016750Y0044100D01*
X0017000Y0044150D02*
Y0044350D01*
X0016750Y0044400D02*
X0017000Y0044150D01*
X0016500D02*
X0016750Y0044400D01*
X0015500Y0044350D02*
Y0044150D01*
X0015750Y0044100D02*
X0015500Y0044350D01*
X0016000D02*
X0015750Y0044100D01*
X0016000Y0044150D02*
Y0044350D01*
X0015750Y0044400D02*
X0016000Y0044150D01*
X0015500D02*
X0015750Y0044400D01*
X0014500Y0044350D02*
Y0044150D01*
X0014750Y0044100D02*
X0014500Y0044350D01*
X0015000D02*
X0014750Y0044100D01*
X0015000Y0044150D02*
Y0044350D01*
X0014750Y0044400D02*
X0015000Y0044150D01*
X0014500D02*
X0014750Y0044400D01*
X0013500Y0044350D02*
Y0044150D01*
X0013750Y0044100D02*
X0013500Y0044350D01*
X0014000D02*
X0013750Y0044100D01*
X0014000Y0044150D02*
Y0044350D01*
X0013750Y0044400D02*
X0014000Y0044150D01*
X0013500D02*
X0013750Y0044400D01*
X0012500Y0044350D02*
Y0044150D01*
X0012750Y0044100D02*
X0012500Y0044350D01*
X0013000D02*
X0012750Y0044100D01*
X0013000Y0044150D02*
Y0044350D01*
X0012750Y0044400D02*
X0013000Y0044150D01*
X0012500D02*
X0012750Y0044400D01*
X0023250Y0041350D02*
Y0041150D01*
X0023500Y0041100D02*
X0023250Y0041350D01*
X0023750D02*
X0023500Y0041100D01*
X0023750Y0041150D02*
Y0041350D01*
X0023500Y0041400D02*
X0023750Y0041150D01*
X0023250D02*
X0023500Y0041400D01*
X0024250Y0041350D02*
Y0041150D01*
X0024500Y0041100D02*
X0024250Y0041350D01*
X0024750D02*
X0024500Y0041100D01*
X0024750Y0041150D02*
Y0041350D01*
X0024500Y0041400D02*
X0024750Y0041150D01*
X0024250D02*
X0024500Y0041400D01*
X0025250Y0041350D02*
Y0041150D01*
X0025500Y0041100D02*
X0025250Y0041350D01*
X0025750D02*
X0025500Y0041100D01*
X0025750Y0041150D02*
Y0041350D01*
X0025500Y0041400D02*
X0025750Y0041150D01*
X0025250D02*
X0025500Y0041400D01*
X0026250Y0041350D02*
Y0041150D01*
X0026500Y0041100D02*
X0026250Y0041350D01*
X0026750D02*
X0026500Y0041100D01*
X0026750Y0041150D02*
Y0041350D01*
X0026500Y0041400D02*
X0026750Y0041150D01*
X0026250D02*
X0026500Y0041400D01*
X0027250Y0041350D02*
Y0041150D01*
X0027500Y0041100D02*
X0027250Y0041350D01*
X0027750D02*
X0027500Y0041100D01*
X0027750Y0041150D02*
Y0041350D01*
X0027500Y0041400D02*
X0027750Y0041150D01*
X0027250D02*
X0027500Y0041400D01*
X0028250Y0041350D02*
Y0041150D01*
X0028500Y0041100D02*
X0028250Y0041350D01*
X0028750D02*
X0028500Y0041100D01*
X0028750Y0041150D02*
Y0041350D01*
X0028500Y0041400D02*
X0028750Y0041150D01*
X0028250D02*
X0028500Y0041400D01*
X0029250Y0041350D02*
Y0041150D01*
X0029500Y0041100D02*
X0029250Y0041350D01*
X0029750D02*
X0029500Y0041100D01*
X0029750Y0041150D02*
Y0041350D01*
X0029500Y0041400D02*
X0029750Y0041150D01*
X0029250D02*
X0029500Y0041400D01*
X0029250Y0044350D02*
Y0044150D01*
X0029500Y0044100D02*
X0029250Y0044350D01*
X0029750D02*
X0029500Y0044100D01*
X0029750Y0044150D02*
Y0044350D01*
X0029500Y0044400D02*
X0029750Y0044150D01*
X0029250D02*
X0029500Y0044400D01*
X0028250Y0044350D02*
Y0044150D01*
X0028500Y0044100D02*
X0028250Y0044350D01*
X0028750D02*
X0028500Y0044100D01*
X0028750Y0044150D02*
Y0044350D01*
X0028500Y0044400D02*
X0028750Y0044150D01*
X0028250D02*
X0028500Y0044400D01*
X0027250Y0044350D02*
Y0044150D01*
X0027500Y0044100D02*
X0027250Y0044350D01*
X0027750D02*
X0027500Y0044100D01*
X0027750Y0044150D02*
Y0044350D01*
X0027500Y0044400D02*
X0027750Y0044150D01*
X0027250D02*
X0027500Y0044400D01*
X0026250Y0044350D02*
Y0044150D01*
X0026500Y0044100D02*
X0026250Y0044350D01*
X0026750D02*
X0026500Y0044100D01*
X0026750Y0044150D02*
Y0044350D01*
X0026500Y0044400D02*
X0026750Y0044150D01*
X0026250D02*
X0026500Y0044400D01*
X0025250Y0044350D02*
Y0044150D01*
X0025500Y0044100D02*
X0025250Y0044350D01*
X0025750D02*
X0025500Y0044100D01*
X0025750Y0044150D02*
Y0044350D01*
X0025500Y0044400D02*
X0025750Y0044150D01*
X0025250D02*
X0025500Y0044400D01*
X0024250Y0044350D02*
Y0044150D01*
X0024500Y0044100D02*
X0024250Y0044350D01*
X0024750D02*
X0024500Y0044100D01*
X0024750Y0044150D02*
Y0044350D01*
X0024500Y0044400D02*
X0024750Y0044150D01*
X0024250D02*
X0024500Y0044400D01*
X0023250Y0044350D02*
Y0044150D01*
X0023500Y0044100D02*
X0023250Y0044350D01*
X0023750D02*
X0023500Y0044100D01*
X0023750Y0044150D02*
Y0044350D01*
X0023500Y0044400D02*
X0023750Y0044150D01*
X0023250D02*
X0023500Y0044400D01*
X0037250Y0048350D02*
Y0048150D01*
X0037500Y0048100D02*
X0037250Y0048350D01*
X0037750D02*
X0037500Y0048100D01*
X0037750Y0048150D02*
Y0048350D01*
X0037500Y0048400D02*
X0037750Y0048150D01*
X0037250D02*
X0037500Y0048400D01*
X0033500Y0048350D02*
Y0048150D01*
X0033750Y0048100D02*
X0033500Y0048350D01*
X0034000D02*
X0033750Y0048100D01*
X0034000Y0048150D02*
Y0048350D01*
X0033750Y0048400D02*
X0034000Y0048150D01*
X0033500D02*
X0033750Y0048400D01*
X0031750Y0048350D02*
Y0048150D01*
X0032000Y0048100D02*
X0031750Y0048350D01*
X0032250D02*
X0032000Y0048100D01*
X0032250Y0048150D02*
Y0048350D01*
X0032000Y0048400D02*
X0032250Y0048150D01*
X0031750D02*
X0032000Y0048400D01*
X0028000Y0048350D02*
Y0048150D01*
X0028250Y0048100D02*
X0028000Y0048350D01*
X0028500D02*
X0028250Y0048100D01*
X0028500Y0048150D02*
Y0048350D01*
X0028250Y0048400D02*
X0028500Y0048150D01*
X0028000D02*
X0028250Y0048400D01*
X0030750Y0046600D02*
Y0046400D01*
X0031000Y0046350D02*
X0030750Y0046600D01*
X0031250D02*
X0031000Y0046350D01*
X0031250Y0046400D02*
Y0046600D01*
X0031000Y0046650D02*
X0031250Y0046400D01*
X0030750D02*
X0031000Y0046650D01*
X0027000Y0046600D02*
Y0046400D01*
X0027250Y0046350D02*
X0027000Y0046600D01*
X0027500D02*
X0027250Y0046350D01*
X0027500Y0046400D02*
Y0046600D01*
X0027250Y0046650D02*
X0027500Y0046400D01*
X0027000D02*
X0027250Y0046650D01*
X0021750Y0046600D02*
Y0046400D01*
X0022000Y0046350D02*
X0021750Y0046600D01*
X0022250D02*
X0022000Y0046350D01*
X0022250Y0046400D02*
Y0046600D01*
X0022000Y0046650D02*
X0022250Y0046400D01*
X0021750D02*
X0022000Y0046650D01*
X0025500Y0046600D02*
Y0046400D01*
X0025750Y0046350D02*
X0025500Y0046600D01*
X0026000D02*
X0025750Y0046350D01*
X0026000Y0046400D02*
Y0046600D01*
X0025750Y0046650D02*
X0026000Y0046400D01*
X0025500D02*
X0025750Y0046650D01*
X0021750Y0048350D02*
Y0048150D01*
X0022000Y0048100D02*
X0021750Y0048350D01*
X0022250D02*
X0022000Y0048100D01*
X0022250Y0048150D02*
Y0048350D01*
X0022000Y0048400D02*
X0022250Y0048150D01*
X0021750D02*
X0022000Y0048400D01*
X0025500Y0048350D02*
Y0048150D01*
X0025750Y0048100D02*
X0025500Y0048350D01*
X0026000D02*
X0025750Y0048100D01*
X0026000Y0048150D02*
Y0048350D01*
X0025750Y0048400D02*
X0026000Y0048150D01*
X0025500D02*
X0025750Y0048400D01*
X0020500Y0045100D02*
Y0044900D01*
X0020750Y0044850D02*
X0020500Y0045100D01*
X0021000D02*
X0020750Y0044850D01*
X0021000Y0044900D02*
Y0045100D01*
X0020750Y0045150D02*
X0021000Y0044900D01*
X0020500D02*
X0020750Y0045150D01*
X0020500Y0041350D02*
Y0041150D01*
X0020750Y0041100D02*
X0020500Y0041350D01*
X0021000D02*
X0020750Y0041100D01*
X0021000Y0041150D02*
Y0041350D01*
X0020750Y0041400D02*
X0021000Y0041150D01*
X0020500D02*
X0020750Y0041400D01*
X0012500Y0046850D02*
Y0046650D01*
X0012750Y0046600D02*
X0012500Y0046850D01*
X0013000D02*
X0012750Y0046600D01*
X0013000Y0046650D02*
Y0046850D01*
X0012750Y0046900D02*
X0013000Y0046650D01*
X0012500D02*
X0012750Y0046900D01*
X0016250Y0046850D02*
Y0046650D01*
X0016500Y0046600D02*
X0016250Y0046850D01*
X0016750D02*
X0016500Y0046600D01*
X0016750Y0046650D02*
Y0046850D01*
X0016500Y0046900D02*
X0016750Y0046650D01*
X0016250D02*
X0016500Y0046900D01*
X0017000Y0030150D02*
X0016750Y0029900D01*
X0017250D02*
X0017000Y0030150D01*
X0016750Y0029900D02*
X0017250D01*
X0034250Y0022900D02*
X0034000Y0022650D01*
X0034500D02*
X0034250Y0022900D01*
X0034000Y0022650D02*
X0034500D01*
X0015000Y0052150D02*
X0014750Y0051900D01*
X0015250D02*
X0015000Y0052150D01*
X0014750Y0051900D02*
X0015250D01*
X0014000Y0052150D02*
X0013750Y0051900D01*
X0014250D02*
X0014000Y0052150D01*
X0013750Y0051900D02*
X0014250D01*
X0034250Y0021900D02*
X0034000Y0021650D01*
X0034500D02*
X0034250Y0021900D01*
X0034000Y0021650D02*
X0034500D01*
X0017000Y0028150D02*
X0016750Y0027900D01*
X0017250D02*
X0017000Y0028150D01*
X0016750Y0027900D02*
X0017250D01*
X0044000Y0045500D02*
Y0045250D01*
X0044250Y0045500D02*
X0044000D01*
X0044250Y0045000D02*
Y0045500D01*
X0044500Y0045000D02*
X0044250D01*
X0044500Y0045250D02*
Y0045000D01*
X0044000Y0045250D02*
X0044500D01*
X0044000Y0025750D02*
Y0025500D01*
X0044250Y0025750D02*
X0044000D01*
X0044250Y0025250D02*
Y0025750D01*
X0044500Y0025250D02*
X0044250D01*
X0044500Y0025500D02*
Y0025250D01*
X0044000Y0025500D02*
X0044500D01*
X0007500Y0045500D02*
Y0045250D01*
X0007750Y0045500D02*
X0007500D01*
X0007750Y0045000D02*
Y0045500D01*
X0008000Y0045000D02*
X0007750D01*
X0008000Y0045250D02*
Y0045000D01*
X0007500Y0045250D02*
X0008000D01*
X0007500Y0025750D02*
Y0025500D01*
X0007750Y0025750D02*
X0007500D01*
X0007750Y0025250D02*
Y0025750D01*
X0008000Y0025250D02*
X0007750D01*
X0008000Y0025500D02*
Y0025250D01*
X0007500Y0025500D02*
X0008000D01*
X0041250Y0024100D02*
Y0023900D01*
X0041500Y0023850D02*
X0041250Y0024100D01*
X0041750D02*
X0041500Y0023850D01*
X0041750Y0023900D02*
Y0024100D01*
X0041500Y0024150D02*
X0041750Y0023900D01*
X0041250D02*
X0041500Y0024150D01*
X0041250Y0025100D02*
Y0024900D01*
X0041500Y0024850D02*
X0041250Y0025100D01*
X0041750D02*
X0041500Y0024850D01*
X0041750Y0024900D02*
Y0025100D01*
X0041500Y0025150D02*
X0041750Y0024900D01*
X0041250D02*
X0041500Y0025150D01*
X0041250Y0026100D02*
Y0025900D01*
X0041500Y0025850D02*
X0041250Y0026100D01*
X0041750D02*
X0041500Y0025850D01*
X0041750Y0025900D02*
Y0026100D01*
X0041500Y0026150D02*
X0041750Y0025900D01*
X0041250D02*
X0041500Y0026150D01*
X0041250Y0027100D02*
Y0026900D01*
X0041500Y0026850D02*
X0041250Y0027100D01*
X0041750D02*
X0041500Y0026850D01*
X0041750Y0026900D02*
Y0027100D01*
X0041500Y0027150D02*
X0041750Y0026900D01*
X0041250D02*
X0041500Y0027150D01*
X0041250Y0028100D02*
Y0027900D01*
X0041500Y0027850D02*
X0041250Y0028100D01*
X0041750D02*
X0041500Y0027850D01*
X0041750Y0027900D02*
Y0028100D01*
X0041500Y0028150D02*
X0041750Y0027900D01*
X0041250D02*
X0041500Y0028150D01*
X0041250Y0029100D02*
Y0028900D01*
X0041500Y0028850D02*
X0041250Y0029100D01*
X0041750D02*
X0041500Y0028850D01*
X0041750Y0028900D02*
Y0029100D01*
X0041500Y0029150D02*
X0041750Y0028900D01*
X0041250D02*
X0041500Y0029150D01*
X0041250Y0030100D02*
Y0029900D01*
X0041500Y0029850D02*
X0041250Y0030100D01*
X0041750D02*
X0041500Y0029850D01*
X0041750Y0029900D02*
Y0030100D01*
X0041500Y0030150D02*
X0041750Y0029900D01*
X0041250D02*
X0041500Y0030150D01*
X0041250Y0031100D02*
Y0030900D01*
X0041500Y0030850D02*
X0041250Y0031100D01*
X0041750D02*
X0041500Y0030850D01*
X0041750Y0030900D02*
Y0031100D01*
X0041500Y0031150D02*
X0041750Y0030900D01*
X0041250D02*
X0041500Y0031150D01*
X0041250Y0032100D02*
Y0031900D01*
X0041500Y0031850D02*
X0041250Y0032100D01*
X0041750D02*
X0041500Y0031850D01*
X0041750Y0031900D02*
Y0032100D01*
X0041500Y0032150D02*
X0041750Y0031900D01*
X0041250D02*
X0041500Y0032150D01*
X0041250Y0033100D02*
Y0032900D01*
X0041500Y0032850D02*
X0041250Y0033100D01*
X0041750D02*
X0041500Y0032850D01*
X0041750Y0032900D02*
Y0033100D01*
X0041500Y0033150D02*
X0041750Y0032900D01*
X0041250D02*
X0041500Y0033150D01*
X0041250Y0034100D02*
Y0033900D01*
X0041500Y0033850D02*
X0041250Y0034100D01*
X0041750D02*
X0041500Y0033850D01*
X0041750Y0033900D02*
Y0034100D01*
X0041500Y0034150D02*
X0041750Y0033900D01*
X0041250D02*
X0041500Y0034150D01*
X0041250Y0035100D02*
Y0034900D01*
X0041500Y0034850D02*
X0041250Y0035100D01*
X0041750D02*
X0041500Y0034850D01*
X0041750Y0034900D02*
Y0035100D01*
X0041500Y0035150D02*
X0041750Y0034900D01*
X0041250D02*
X0041500Y0035150D01*
X0041250Y0036100D02*
Y0035900D01*
X0041500Y0035850D02*
X0041250Y0036100D01*
X0041750D02*
X0041500Y0035850D01*
X0041750Y0035900D02*
Y0036100D01*
X0041500Y0036150D02*
X0041750Y0035900D01*
X0041250D02*
X0041500Y0036150D01*
X0041250Y0037100D02*
Y0036900D01*
X0041500Y0036850D02*
X0041250Y0037100D01*
X0041750D02*
X0041500Y0036850D01*
X0041750Y0036900D02*
Y0037100D01*
X0041500Y0037150D02*
X0041750Y0036900D01*
X0041250D02*
X0041500Y0037150D01*
X0026234Y0019509D02*
Y0019309D01*
X0026484Y0019259D02*
X0026234Y0019509D01*
X0026734D02*
X0026484Y0019259D01*
X0026734Y0019309D02*
Y0019509D01*
X0026484Y0019559D02*
X0026734Y0019309D01*
X0026234D02*
X0026484Y0019559D01*
X0025250Y0019509D02*
Y0019309D01*
X0025500Y0019259D02*
X0025250Y0019509D01*
X0025750D02*
X0025500Y0019259D01*
X0025750Y0019309D02*
Y0019509D01*
X0025500Y0019559D02*
X0025750Y0019309D01*
X0025250D02*
X0025500Y0019559D01*
X0025250Y0018722D02*
Y0018522D01*
X0025500Y0018472D02*
X0025250Y0018722D01*
X0025750D02*
X0025500Y0018472D01*
X0025750Y0018522D02*
Y0018722D01*
X0025500Y0018772D02*
X0025750Y0018522D01*
X0025250D02*
X0025500Y0018772D01*
X0026234Y0018722D02*
Y0018522D01*
X0026484Y0018472D02*
X0026234Y0018722D01*
X0026734D02*
X0026484Y0018472D01*
X0026734Y0018522D02*
Y0018722D01*
X0026484Y0018772D02*
X0026734Y0018522D01*
X0026234D02*
X0026484Y0018772D01*
X0023378Y0017637D02*
Y0017437D01*
X0023528Y0017787D02*
X0023378Y0017637D01*
X0023728Y0017787D02*
X0023528D01*
X0023878Y0017637D02*
X0023728Y0017787D01*
X0023878Y0017437D02*
Y0017637D01*
X0023728Y0017287D02*
X0023878Y0017437D01*
X0023528Y0017287D02*
X0023728D01*
X0023378Y0017437D02*
X0023528Y0017287D01*
X0028106Y0017637D02*
Y0017437D01*
X0028256Y0017787D02*
X0028106Y0017637D01*
X0028456Y0017787D02*
X0028256D01*
X0028606Y0017637D02*
X0028456Y0017787D01*
X0028606Y0017437D02*
Y0017637D01*
X0028456Y0017287D02*
X0028606Y0017437D01*
X0028256Y0017287D02*
X0028456D01*
X0028106Y0017437D02*
X0028256Y0017287D01*
X0035750Y0015100D02*
Y0014900D01*
X0036000Y0014850D02*
X0035750Y0015100D01*
X0036250D02*
X0036000Y0014850D01*
X0036250Y0014900D02*
Y0015100D01*
X0036000Y0015150D02*
X0036250Y0014900D01*
X0035750D02*
X0036000Y0015150D01*
X0035750Y0016100D02*
Y0015900D01*
X0036000Y0015850D02*
X0035750Y0016100D01*
X0036250D02*
X0036000Y0015850D01*
X0036250Y0015900D02*
Y0016100D01*
X0036000Y0016150D02*
X0036250Y0015900D01*
X0035750D02*
X0036000Y0016150D01*
X0037750Y0015100D02*
Y0014900D01*
X0038000Y0014850D02*
X0037750Y0015100D01*
X0038250D02*
X0038000Y0014850D01*
X0038250Y0014900D02*
Y0015100D01*
X0038000Y0015150D02*
X0038250Y0014900D01*
X0037750D02*
X0038000Y0015150D01*
X0037750Y0016100D02*
Y0015900D01*
X0038000Y0015850D02*
X0037750Y0016100D01*
X0038250D02*
X0038000Y0015850D01*
X0038250Y0015900D02*
Y0016100D01*
X0038000Y0016150D02*
X0038250Y0015900D01*
X0037750D02*
X0038000Y0016150D01*
X0039750Y0015100D02*
Y0014900D01*
X0040000Y0014850D02*
X0039750Y0015100D01*
X0040250D02*
X0040000Y0014850D01*
X0040250Y0014900D02*
Y0015100D01*
X0040000Y0015150D02*
X0040250Y0014900D01*
X0039750D02*
X0040000Y0015150D01*
X0039750Y0016100D02*
Y0015900D01*
X0040000Y0015850D02*
X0039750Y0016100D01*
X0040250D02*
X0040000Y0015850D01*
X0040250Y0015900D02*
Y0016100D01*
X0040000Y0016150D02*
X0040250Y0015900D01*
X0039750D02*
X0040000Y0016150D01*
X0041750Y0015100D02*
Y0014900D01*
X0042000Y0014850D02*
X0041750Y0015100D01*
X0042250D02*
X0042000Y0014850D01*
X0042250Y0014900D02*
Y0015100D01*
X0042000Y0015150D02*
X0042250Y0014900D01*
X0041750D02*
X0042000Y0015150D01*
X0041750Y0016100D02*
Y0015900D01*
X0042000Y0015850D02*
X0041750Y0016100D01*
X0042250D02*
X0042000Y0015850D01*
X0042250Y0015900D02*
Y0016100D01*
X0042000Y0016150D02*
X0042250Y0015900D01*
X0041750D02*
X0042000Y0016150D01*
X0034000Y0052150D02*
X0033750Y0051900D01*
X0034250D02*
X0034000Y0052150D01*
X0033750Y0051900D02*
X0034250D01*
X0034000Y0051150D02*
X0033750Y0050900D01*
X0034250D02*
X0034000Y0051150D01*
X0033750Y0050900D02*
X0034250D01*
X0033000Y0052150D02*
X0032750Y0051900D01*
X0033250D02*
X0033000Y0052150D01*
X0032750Y0051900D02*
X0033250D01*
X0033000Y0051150D02*
X0032750Y0050900D01*
X0033250D02*
X0033000Y0051150D01*
X0032750Y0050900D02*
X0033250D01*
X0032000Y0052150D02*
X0031750Y0051900D01*
X0032250D02*
X0032000Y0052150D01*
X0031750Y0051900D02*
X0032250D01*
X0032000Y0051150D02*
X0031750Y0050900D01*
X0032250D02*
X0032000Y0051150D01*
X0031750Y0050900D02*
X0032250D01*
X0031000Y0052150D02*
X0030750Y0051900D01*
X0031250D02*
X0031000Y0052150D01*
X0030750Y0051900D02*
X0031250D01*
X0031000Y0051150D02*
X0030750Y0050900D01*
X0031250D02*
X0031000Y0051150D01*
X0030750Y0050900D02*
X0031250D01*
X0030000Y0052150D02*
X0029750Y0051900D01*
X0030250D02*
X0030000Y0052150D01*
X0029750Y0051900D02*
X0030250D01*
X0030000Y0051150D02*
X0029750Y0050900D01*
X0030250D02*
X0030000Y0051150D01*
X0029750Y0050900D02*
X0030250D01*
X0029000Y0052150D02*
X0028750Y0051900D01*
X0029250D02*
X0029000Y0052150D01*
X0028750Y0051900D02*
X0029250D01*
X0029000Y0051150D02*
X0028750Y0050900D01*
X0029250D02*
X0029000Y0051150D01*
X0028750Y0050900D02*
X0029250D01*
X0028000Y0052150D02*
X0027750Y0051900D01*
X0028250D02*
X0028000Y0052150D01*
X0027750Y0051900D02*
X0028250D01*
X0028000Y0051150D02*
X0027750Y0050900D01*
X0028250D02*
X0028000Y0051150D01*
X0027750Y0050900D02*
X0028250D01*
X0027000Y0052150D02*
X0026750Y0051900D01*
X0027250D02*
X0027000Y0052150D01*
X0026750Y0051900D02*
X0027250D01*
X0027000Y0051150D02*
X0026750Y0050900D01*
X0027250D02*
X0027000Y0051150D01*
X0026750Y0050900D02*
X0027250D01*
X0026000Y0052150D02*
X0025750Y0051900D01*
X0026250D02*
X0026000Y0052150D01*
X0025750Y0051900D02*
X0026250D01*
X0026000Y0051150D02*
X0025750Y0050900D01*
X0026250D02*
X0026000Y0051150D01*
X0025750Y0050900D02*
X0026250D01*
X0025000Y0052150D02*
X0024750Y0051900D01*
X0025250D02*
X0025000Y0052150D01*
X0024750Y0051900D02*
X0025250D01*
X0025000Y0051150D02*
X0024750Y0050900D01*
X0025250D02*
X0025000Y0051150D01*
X0024750Y0050900D02*
X0025250D01*
X0024000Y0052150D02*
X0023750Y0051900D01*
X0024250D02*
X0024000Y0052150D01*
X0023750Y0051900D02*
X0024250D01*
X0024000Y0051150D02*
X0023750Y0050900D01*
X0024250D02*
X0024000Y0051150D01*
X0023750Y0050900D02*
X0024250D01*
X0023000Y0052150D02*
X0022750Y0051900D01*
X0023250D02*
X0023000Y0052150D01*
X0022750Y0051900D02*
X0023250D01*
X0023000Y0051150D02*
X0022750Y0050900D01*
X0023250D02*
X0023000Y0051150D01*
X0022750Y0050900D02*
X0023250D01*
X0022000Y0052150D02*
X0021750Y0051900D01*
X0022250D02*
X0022000Y0052150D01*
X0021750Y0051900D02*
X0022250D01*
X0022000Y0051150D02*
X0021750Y0050900D01*
X0022250D02*
X0022000Y0051150D01*
X0021750Y0050900D02*
X0022250D01*
X0021000Y0052150D02*
X0020750Y0051900D01*
X0021250D02*
X0021000Y0052150D01*
X0020750Y0051900D02*
X0021250D01*
X0021000Y0051150D02*
X0020750Y0050900D01*
X0021250D02*
X0021000Y0051150D01*
X0020750Y0050900D02*
X0021250D01*
X0020000Y0052150D02*
X0019750Y0051900D01*
X0020250D02*
X0020000Y0052150D01*
X0019750Y0051900D02*
X0020250D01*
X0020000Y0051150D02*
X0019750Y0050900D01*
X0020250D02*
X0020000Y0051150D01*
X0019750Y0050900D02*
X0020250D01*
X0019000Y0052150D02*
X0018750Y0051900D01*
X0019250D02*
X0019000Y0052150D01*
X0018750Y0051900D02*
X0019250D01*
X0019000Y0051150D02*
X0018750Y0050900D01*
X0019250D02*
X0019000Y0051150D01*
X0018750Y0050900D02*
X0019250D01*
X0018000Y0052150D02*
X0017750Y0051900D01*
X0018250D02*
X0018000Y0052150D01*
X0017750Y0051900D02*
X0018250D01*
X0018000Y0051150D02*
X0017750Y0050900D01*
X0018250D02*
X0018000Y0051150D01*
X0017750Y0050900D02*
X0018250D01*
X0013000Y0049350D02*
Y0049150D01*
X0013250Y0049100D02*
X0013000Y0049350D01*
X0013500D02*
X0013250Y0049100D01*
X0013500Y0049150D02*
Y0049350D01*
X0013250Y0049400D02*
X0013500Y0049150D01*
X0013000D02*
X0013250Y0049400D01*
X0014250Y0049350D02*
Y0049150D01*
X0014500Y0049100D02*
X0014250Y0049350D01*
X0014750D02*
X0014500Y0049100D01*
X0014750Y0049150D02*
Y0049350D01*
X0014500Y0049400D02*
X0014750Y0049150D01*
X0014250D02*
X0014500Y0049400D01*
M02*
