*
G04 Mass Parameters ***
*
G04 Image ***
*
%INE:\HXCFLOPPYEMULATOR_IPCORE\PCB\PROD_VERSION_REVC\ORCAD_LAYOUT\CPLDHXCFLOPPYEMULATOR.SMB*%
%ICAS*%
%MOIN*%
%IPPOS*%
%ASAXBY*%
G74*%FSLAN2X34Y34*%
*
G04 Aperture Definitions ***
*
%ADD10C,0.0450*%
%ADD11C,0.0520*%
%ADD12R,0.0520X0.0520*%
%ADD13C,0.0580*%
%ADD14R,0.0580X0.0580*%
%ADD15C,0.0620*%
%ADD16R,0.0500X0.0500*%
%ADD17R,0.0640X0.0740*%
%ADD18O,0.0900X0.0160*%
%ADD19R,0.0900X0.0160*%
%ADD20C,0.0140*%
%ADD21C,0.0160*%
%ADD22C,0.0260*%
%ADD23C,0.0240*%
%ADD24C,0.0650*%
%ADD25C,0.0720*%
%ADD26R,0.0720X0.0720*%
%ADD27C,0.0780*%
%ADD28R,0.0780X0.0780*%
%ADD29C,0.0800*%
%ADD30C,0.0500*%
%ADD31C,0.0670*%
%ADD32C,0.0080*%
%ADD33C,0.0100*%
%ADD34C,0.1000*%
%ADD35C,0.0700*%
%ADD36C,0.0990*%
%ADD37R,0.0600X0.0600*%
%ADD38C,0.0600*%
%ADD39C,0.0550*%
%ADD40R,0.0650X0.0650*%
%ADD41C,0.0940*%
%ADD42R,0.0700X0.0700*%
%ADD43R,0.0670X0.0670*%
%ADD44C,0.0010*%
%ADD45C,0.0140*%
%ADD46C,0.0050*%
%ADD47C,0.0460*%
%ADD48C,0.0320*%
%ADD49C,0.0520*%
%ADD50C,0.0250*%
%ADD51C,0.0180*%
%ADD52C,0.0500*%
%ADD53C,0.0120*%
%ADD54C,0.0140*%
%ADD55C,0.0750*%
%ADD56C,0.0550*%
%ADD57C,0.0060*%
%ADD58C,0.0750*%
%ADD59C,0.0140*%
%ADD60C,0.0140*%
%ADD61C,0.1100*%
%ADD62C,0.0500*%
%ADD63C,0.1400*%
%ADD64C,0.1050*%
%ADD65C,0.1300*%
%ADD66C,0.0610*%
%ADD67C,0.1360*%
%ADD68C,0.1350*%
%ADD69C,0.0660*%
%ADD70C,0.0140*%
%ADD71C,0.0140*%
%ADD72R,0.1200X0.0800*%
%ADD73R,0.0590X0.1120*%
%ADD74R,0.0920X0.0560*%
%ADD75R,0.0320X0.0380*%
%ADD76R,0.0340X0.0400*%
%ADD77R,0.0340X0.0500*%
%ADD78R,0.0500X0.0340*%
%ADD79R,0.0400X0.0340*%
%ADD80C,0.0140*%
%ADD81C,0.0140*%
%ADD82C,0.0140*%
%ADD83R,0.0620X0.0620*%
%ADD84C,0.0140*%
%ADD85C,0.0680*%
%ADD86C,0.1417*%
%ADD87C,0.1500*%
%ADD88C,0.1476*%
%ADD89C,0.0340*%
%ADD90C,0.0480*%
%ADD91R,0.0680X0.0680*%
%ADD92R,0.0660X0.0660*%
%ADD93C,0.0640*%
%ADD94R,0.0640X0.0640*%
%ADD95C,0.0140*%
%ADD96R,0.1200X0.1201*%
%ADD97C,0.1496*%
%ADD98C,0.0640*%
%ADD99C,0.1535*%
%ADD100C,0.0680*%
%ADD101R,0.1200X0.1200*%
*
G04 Plot Data ***
*
G54D18*
X0017000Y0021744D03*
Y0021488D03*
Y0021232D03*
Y0020976D03*
Y0020720D03*
Y0020464D03*
Y0020208D03*
Y0019952D03*
Y0019440D03*
Y0019184D03*
Y0018928D03*
Y0018672D03*
X0014300D03*
Y0018928D03*
Y0019184D03*
Y0019440D03*
Y0019696D03*
Y0020208D03*
Y0020464D03*
Y0020720D03*
Y0020976D03*
Y0021232D03*
Y0021488D03*
Y0021744D03*
Y0022000D03*
G54D19*
X0017000D03*
Y0019696D03*
X0014300Y0019952D03*
G54D37*
X0036000Y0019000D03*
Y0017700D03*
X0038000Y0019000D03*
Y0017700D03*
X0040000Y0019000D03*
Y0017700D03*
X0012500Y0039250D03*
X0013800D03*
X0042000Y0017700D03*
Y0019000D03*
X0032500Y0044250D03*
Y0042950D03*
X0022000Y0044250D03*
Y0042950D03*
X0011000Y0044250D03*
Y0042950D03*
X0035500Y0022750D03*
X0036800D03*
X0014250Y0034750D03*
X0012950D03*
X0022000Y0032500D03*
X0023300D03*
X0021750Y0027500D03*
Y0028800D03*
X0022000Y0025500D03*
X0023300D03*
X0026000D03*
X0024700D03*
X0029000D03*
X0027700D03*
X0026000Y0032500D03*
X0024700D03*
X0029000Y0030500D03*
Y0029200D03*
X0028500Y0032500D03*
X0027200D03*
X0012250Y0019500D03*
X0010950D03*
X0016000Y0023250D03*
X0014700D03*
X0013250Y0016250D03*
Y0017550D03*
G54D69*
X0034000Y0051000D03*
X0033000Y0052000D03*
Y0051000D03*
X0032000Y0052000D03*
Y0051000D03*
X0031000Y0052000D03*
Y0051000D03*
X0030000Y0052000D03*
X0029000D03*
Y0051000D03*
X0028000Y0052000D03*
Y0051000D03*
X0027000Y0052000D03*
Y0051000D03*
X0026000Y0052000D03*
Y0051000D03*
X0025000Y0052000D03*
X0024000D03*
Y0051000D03*
X0023000Y0052000D03*
Y0051000D03*
X0022000Y0052000D03*
Y0051000D03*
X0021000Y0052000D03*
Y0051000D03*
X0020000Y0052000D03*
X0019000D03*
Y0051000D03*
X0018000Y0052000D03*
Y0051000D03*
G54D85*
X0037500Y0021750D03*
X0041000D03*
X0039875Y0039000D03*
X0044250Y0032000D03*
X0031750Y0041250D03*
X0044500Y0015500D03*
X0033000Y0033250D03*
X0011250Y0022250D03*
X0019500Y0038750D03*
X0014250Y0015000D03*
X0012750Y0036500D03*
X0007750Y0048250D03*
X0017000Y0023000D03*
X0032000Y0017000D03*
X0037000Y0045750D03*
X0007750Y0019625D03*
X0042750Y0050500D03*
X0037500Y0048250D03*
X0033750D03*
X0032000D03*
X0028250D03*
X0031000Y0046500D03*
X0027250D03*
X0022000D03*
X0025750D03*
X0022000Y0048250D03*
X0025750D03*
X0020750Y0045000D03*
Y0041250D03*
X0012750Y0046750D03*
X0016500D03*
X0014500Y0049250D03*
G54D87*
X0044250Y0045250D03*
Y0025500D03*
X0007750Y0045250D03*
Y0025500D03*
G54D91*
X0013250Y0049250D03*
G54D92*
X0034000Y0052000D03*
X0030000Y0051000D03*
X0025000D03*
X0020000D03*
G54D93*
X0011250Y0030500D03*
Y0027500D03*
X0014250D03*
Y0030500D03*
Y0033500D03*
X0025500Y0024000D03*
X0026500Y0023000D03*
Y0024000D03*
X0027500Y0023000D03*
Y0024000D03*
X0028500Y0023000D03*
Y0024000D03*
X0029500Y0023000D03*
Y0024000D03*
X0030500Y0023000D03*
X0031500Y0024000D03*
X0030500D03*
X0031500Y0025000D03*
X0030500D03*
X0031500Y0026000D03*
X0030500D03*
X0031500Y0027000D03*
X0030500D03*
X0031500Y0028000D03*
X0030500D03*
X0031500Y0029000D03*
X0030500D03*
X0031500Y0030000D03*
X0030500D03*
X0031500Y0031000D03*
X0030500D03*
X0031500Y0032000D03*
X0030500D03*
X0031500Y0033000D03*
X0030500D03*
X0031500Y0034000D03*
X0030500Y0035000D03*
Y0034000D03*
X0029500Y0035000D03*
Y0034000D03*
X0028500Y0035000D03*
Y0034000D03*
X0027500Y0035000D03*
Y0034000D03*
X0026500Y0035000D03*
Y0034000D03*
X0025500Y0035000D03*
Y0034000D03*
X0024500Y0035000D03*
Y0034000D03*
X0023500Y0035000D03*
Y0034000D03*
X0022500Y0035000D03*
Y0034000D03*
X0021500Y0035000D03*
Y0034000D03*
X0020500Y0035000D03*
X0019500Y0034000D03*
X0020500D03*
X0019500Y0033000D03*
X0020500D03*
X0019500Y0032000D03*
X0020500D03*
X0019500Y0031000D03*
X0020500D03*
X0019500Y0030000D03*
X0020500D03*
X0019500Y0029000D03*
X0020500D03*
X0019500Y0028000D03*
X0020500D03*
X0019500Y0027000D03*
X0020500D03*
X0019500Y0026000D03*
X0020500D03*
X0019500Y0025000D03*
X0020500D03*
X0019500Y0024000D03*
X0020500Y0023000D03*
Y0024000D03*
X0021500Y0023000D03*
Y0024000D03*
X0022500Y0023000D03*
Y0024000D03*
X0023500Y0023000D03*
Y0024000D03*
X0024500Y0023000D03*
Y0024000D03*
X0038500Y0025000D03*
Y0026000D03*
Y0027000D03*
Y0028000D03*
Y0029000D03*
Y0030000D03*
Y0031000D03*
Y0032000D03*
Y0033000D03*
Y0034000D03*
Y0035000D03*
Y0036000D03*
Y0037000D03*
X0035500D03*
Y0036000D03*
Y0035000D03*
Y0034000D03*
Y0033000D03*
Y0032000D03*
Y0031000D03*
Y0030000D03*
Y0029000D03*
Y0028000D03*
Y0027000D03*
Y0026000D03*
Y0025000D03*
Y0024000D03*
X0035000Y0041250D03*
X0036000D03*
X0037000D03*
X0038000D03*
X0039000D03*
X0040000D03*
Y0044250D03*
X0039000D03*
X0038000D03*
X0037000D03*
X0036000D03*
X0035000D03*
X0034000D03*
X0013750Y0041250D03*
X0014750D03*
X0015750D03*
X0016750D03*
X0017750D03*
X0018750D03*
Y0044250D03*
X0017750D03*
X0016750D03*
X0015750D03*
X0014750D03*
X0013750D03*
X0012750D03*
X0024500Y0041250D03*
X0025500D03*
X0026500D03*
X0027500D03*
X0028500D03*
X0029500D03*
Y0044250D03*
X0028500D03*
X0027500D03*
X0026500D03*
X0025500D03*
X0024500D03*
X0023500D03*
X0017000Y0030000D03*
X0034250Y0022750D03*
X0015000Y0052000D03*
X0014000D03*
X0034250Y0021750D03*
X0017000Y0028000D03*
X0041500Y0025000D03*
Y0026000D03*
Y0027000D03*
Y0028000D03*
Y0029000D03*
Y0030000D03*
Y0031000D03*
Y0032000D03*
Y0033000D03*
Y0034000D03*
Y0035000D03*
Y0036000D03*
Y0037000D03*
X0026484Y0019409D03*
X0025500D03*
Y0018622D03*
X0026484D03*
X0036000Y0016000D03*
X0038000D03*
X0040000D03*
X0042000D03*
G54D94*
X0011250Y0033500D03*
X0025500Y0023000D03*
X0038500Y0024000D03*
X0034000Y0041250D03*
X0012750D03*
X0023500D03*
X0041500Y0024000D03*
X0036000Y0015000D03*
X0038000D03*
X0040000D03*
X0042000D03*
G54D99*
X0023628Y0017537D03*
X0028356D03*
G54D100*
X0021250Y0019000D03*
X0034250Y0024000D03*
X0028000Y0029750D03*
X0027750Y0031500D03*
X0025250D03*
X0022750D03*
X0011250Y0018250D03*
X0015500Y0024250D03*
X0009000Y0027000D03*
X0022750Y0028250D03*
Y0026500D03*
X0024750Y0022000D03*
X0025250Y0026500D03*
X0028250D03*
X0030500Y0042500D03*
X0026000Y0038250D03*
X0024000D03*
X0026750Y0040000D03*
X0016750Y0027000D03*
X0023750Y0022000D03*
X0032500Y0024750D03*
Y0028500D03*
X0018000Y0025250D03*
M02*
