*
G04 Mass Parameters ***
*
G04 Image ***
*
%INE:\HXCFLOPPYEMULATOR_IPCORE\PCB\PROD_VERSION_REVC\ORCAD_LAYOUT\CPLDHXCFLOPPYEMULATOR.SST*%
%ICAS*%
%MOIN*%
%IPPOS*%
%ASAXBY*%
G74*%FSLAN2X34Y34*%
*
G04 Aperture Definitions ***
*
%ADD10C,0.0450*%
%ADD11C,0.0520*%
%ADD12R,0.0520X0.0520*%
%ADD13C,0.0580*%
%ADD14R,0.0580X0.0580*%
%ADD15C,0.0620*%
%ADD16R,0.0500X0.0500*%
%ADD17R,0.0640X0.0740*%
%ADD18O,0.0900X0.0160*%
%ADD19R,0.0900X0.0160*%
%ADD20C,0.0140*%
%ADD21C,0.0160*%
%ADD22C,0.0260*%
%ADD23C,0.0240*%
%ADD24C,0.0650*%
%ADD25C,0.0720*%
%ADD26R,0.0720X0.0720*%
%ADD27C,0.0780*%
%ADD28R,0.0780X0.0780*%
%ADD29C,0.0800*%
%ADD30C,0.0500*%
%ADD31C,0.0670*%
%ADD32C,0.0080*%
%ADD33C,0.0100*%
%ADD34C,0.1000*%
%ADD35C,0.0700*%
%ADD36C,0.0990*%
%ADD37R,0.0600X0.0600*%
%ADD38C,0.0600*%
%ADD39C,0.0550*%
%ADD40R,0.0650X0.0650*%
%ADD41C,0.0940*%
%ADD42R,0.0700X0.0700*%
%ADD43R,0.0670X0.0670*%
%ADD44C,0.0010*%
%ADD45C,0.0140*%
%ADD46C,0.0050*%
%ADD47C,0.0460*%
%ADD48C,0.0320*%
%ADD49C,0.0520*%
%ADD50C,0.0250*%
%ADD51C,0.0180*%
%ADD52C,0.0500*%
%ADD53C,0.0120*%
%ADD54C,0.0140*%
%ADD55C,0.0750*%
%ADD56C,0.0550*%
%ADD57C,0.0060*%
%ADD58C,0.0750*%
%ADD59C,0.0140*%
%ADD60C,0.0140*%
%ADD61C,0.1100*%
%ADD62C,0.0500*%
%ADD63C,0.1400*%
%ADD64C,0.1050*%
%ADD65C,0.1300*%
%ADD66C,0.0610*%
%ADD67C,0.1360*%
%ADD68C,0.1350*%
%ADD69C,0.0660*%
%ADD70C,0.0140*%
%ADD71C,0.0140*%
%ADD72R,0.1200X0.0800*%
%ADD73R,0.0590X0.1120*%
%ADD74R,0.0920X0.0560*%
%ADD75R,0.0320X0.0380*%
%ADD76R,0.0340X0.0400*%
%ADD77R,0.0340X0.0500*%
%ADD78R,0.0500X0.0340*%
%ADD79R,0.0400X0.0340*%
%ADD80C,0.0140*%
%ADD81C,0.0140*%
%ADD82C,0.0140*%
%ADD83R,0.0620X0.0620*%
%ADD84C,0.0140*%
%ADD85C,0.0680*%
%ADD86C,0.1417*%
%ADD87C,0.1500*%
%ADD88C,0.1476*%
%ADD89C,0.0340*%
%ADD90C,0.0480*%
%ADD91R,0.0680X0.0680*%
%ADD92R,0.0660X0.0660*%
%ADD93C,0.0640*%
%ADD94R,0.0640X0.0640*%
%ADD95C,0.0140*%
%ADD96R,0.1200X0.1201*%
%ADD97C,0.1496*%
%ADD98C,0.0640*%
%ADD99C,0.1535*%
%ADD100C,0.0680*%
%ADD101R,0.1200X0.1200*%
*
G04 Plot Data ***
*
G54D32*
G01X0032926Y0023571D02*
Y0023738D01*
X0032981Y0023765D01*
X0033037D01*
X0033092Y0023738D01*
Y0023571D01*
X0033037Y0023543D01*
X0032981D01*
X0032759Y0023654D01*
Y0023355D02*
X0033037D01*
X0033092Y0023328D01*
Y0023161D01*
X0033037Y0023133D01*
X0032759D01*
X0025555Y0022082D02*
X0025444D01*
X0025500D02*
Y0022416D01*
X0025444Y0022360D01*
X0032417Y0024326D02*
Y0024104D01*
X0032195Y0024326D01*
X0032140D01*
X0032084Y0024299D01*
Y0024132D01*
X0032140Y0024104D01*
X0032417Y0023916D02*
Y0023805D01*
Y0023861D02*
X0032084D01*
X0032140Y0023805D01*
X0023799Y0047224D02*
X0023966D01*
X0023994Y0047169D01*
Y0047113D01*
X0023966Y0047058D01*
X0023799D01*
X0023771Y0047113D01*
Y0047169D01*
X0023883Y0047391D01*
X0023584Y0047058D02*
X0023473D01*
X0023528D02*
Y0047391D01*
X0023473Y0047335D01*
X0023146Y0047224D02*
X0023229Y0047058D01*
X0023007Y0047224D02*
X0023174D01*
X0023229Y0047280D01*
Y0047335D01*
X0023174Y0047391D01*
X0023007D01*
Y0047058D01*
X0014605Y0047308D02*
X0014549Y0047363D01*
X0014521Y0047419D01*
Y0047530D01*
X0014549Y0047585D01*
X0014605Y0047641D01*
X0014660D01*
X0014716Y0047585D01*
X0014744Y0047530D01*
Y0047419D01*
X0014716Y0047363D01*
X0014660Y0047308D01*
X0014605D01*
X0014334D02*
X0014223D01*
X0014278D02*
Y0047641D01*
X0014223Y0047585D01*
X0013896Y0047474D02*
X0013979Y0047308D01*
X0013757Y0047474D02*
X0013924D01*
X0013979Y0047530D01*
Y0047585D01*
X0013924Y0047641D01*
X0013757D01*
Y0047308D01*
X0034944Y0052167D02*
X0035055D01*
X0035000D02*
Y0051834D01*
X0035055Y0051890D01*
X0034889Y0051167D02*
X0035111D01*
X0034889Y0050945D01*
Y0050889D01*
X0034917Y0050834D01*
X0035083D01*
X0035111Y0050889D01*
X0036887Y0014917D02*
X0036942Y0014973D01*
Y0015084D01*
X0036887Y0015139D01*
X0036831D01*
X0036720Y0015028D01*
X0036609Y0015139D01*
Y0014917D01*
X0036942Y0014535D02*
X0036609D01*
X0036942Y0014507D02*
Y0014674D01*
X0036831Y0014729D01*
X0036720D01*
X0036609Y0014674D01*
Y0014507D01*
X0013994Y0050683D02*
X0013883D01*
X0013938D02*
Y0051016D01*
X0013883Y0050960D01*
X0013639Y0050683D02*
X0013417D01*
X0013639Y0050905D01*
Y0050960D01*
X0013612Y0051016D01*
X0013445D01*
X0013417Y0050960D01*
X0013229Y0050738D02*
X0013202Y0050683D01*
X0013035D01*
X0013007Y0050738D01*
Y0050960D01*
X0013035Y0051016D01*
X0013202D01*
X0013229Y0050960D01*
X0034831Y0015139D02*
Y0014917D01*
X0034609Y0015028D01*
Y0015084D01*
X0034942D01*
Y0014535D02*
X0034609D01*
X0034942Y0014507D02*
Y0014674D01*
X0034831Y0014729D01*
X0034720D01*
X0034609Y0014674D01*
Y0014507D01*
X0016368Y0051056D02*
X0016590D01*
X0016479Y0050834D01*
X0016423D01*
Y0051167D01*
X0017000Y0051112D02*
X0016944Y0051167D01*
X0016833D01*
X0016778Y0051112D01*
Y0051056D01*
X0016889Y0050945D01*
X0016778Y0050834D01*
X0017000D01*
X0016590Y0052112D02*
X0016534Y0052167D01*
X0016423D01*
X0016368Y0052112D01*
Y0052056D01*
X0016479Y0051945D01*
X0016368Y0051834D01*
X0016590D01*
X0017000Y0052112D02*
X0016944Y0052167D01*
X0016833D01*
X0016778Y0052112D01*
Y0052056D01*
X0016889Y0051945D01*
X0016778Y0051834D01*
X0017000D01*
X0023785Y0044883D02*
X0023563D01*
X0023785Y0045105D01*
Y0045160D01*
X0023758Y0045216D01*
X0023591D01*
X0023563Y0045160D01*
X0023375Y0045216D02*
Y0044938D01*
X0023348Y0044883D01*
X0023181D01*
X0023153Y0044938D01*
Y0045216D01*
X0023994Y0048919D02*
X0023771D01*
X0023883Y0049141D01*
X0023938D01*
Y0048808D01*
X0023584D02*
X0023473D01*
X0023528D02*
Y0049141D01*
X0023473Y0049085D01*
X0023146Y0048974D02*
X0023229Y0048808D01*
X0023007Y0048974D02*
X0023174D01*
X0023229Y0049030D01*
Y0049085D01*
X0023174Y0049141D01*
X0023007D01*
Y0048808D01*
X0021308Y0043006D02*
Y0043228D01*
X0021530Y0043006D01*
X0021585D01*
X0021641Y0043034D01*
Y0043201D01*
X0021585Y0043228D01*
X0021308Y0043416D02*
Y0043527D01*
Y0043472D02*
X0021641D01*
X0021585Y0043527D01*
X0021474Y0043854D02*
X0021308Y0043770D01*
X0021474Y0043993D02*
Y0043826D01*
X0021530Y0043770D01*
X0021585D01*
X0021641Y0043826D01*
Y0043993D01*
X0021308D01*
X0040942Y0015084D02*
Y0014973D01*
Y0015028D02*
X0040609D01*
X0040664Y0014973D01*
X0040942Y0014535D02*
X0040609D01*
X0040942Y0014507D02*
Y0014674D01*
X0040831Y0014729D01*
X0040720D01*
X0040609Y0014674D01*
Y0014507D01*
X0029034Y0045776D02*
X0029006Y0045720D01*
Y0045664D01*
X0029034Y0045609D01*
X0029201D01*
X0029228Y0045664D01*
Y0045720D01*
X0029201Y0045776D01*
X0029034D01*
X0029006Y0045831D01*
Y0045887D01*
X0029034Y0045942D01*
X0029201D01*
X0029228Y0045887D01*
Y0045831D01*
X0029201Y0045776D01*
X0029416Y0045942D02*
X0029527D01*
X0029472D02*
Y0045609D01*
X0029527Y0045664D01*
X0029854Y0045776D02*
X0029770Y0045942D01*
X0029993Y0045776D02*
X0029826D01*
X0029770Y0045720D01*
Y0045664D01*
X0029826Y0045609D01*
X0029993D01*
Y0045942D01*
X0035450Y0047692D02*
X0035673D01*
X0035450Y0047470D01*
Y0047414D01*
X0035478Y0047359D01*
X0035645D01*
X0035673Y0047414D01*
X0035860Y0047692D02*
X0036083D01*
X0035860Y0047470D01*
Y0047414D01*
X0035888Y0047359D01*
X0036055D01*
X0036083Y0047414D01*
X0036354Y0047526D02*
X0036270Y0047692D01*
X0036493Y0047526D02*
X0036326D01*
X0036270Y0047470D01*
Y0047414D01*
X0036326Y0047359D01*
X0036493D01*
Y0047692D01*
X0037592Y0024218D02*
Y0023995D01*
X0037370Y0024218D01*
X0037314D01*
X0037259Y0024190D01*
Y0024023D01*
X0037314Y0023995D01*
X0037481Y0023613D02*
X0037537D01*
X0037592Y0023641D01*
Y0023752D01*
X0037537Y0023780D01*
X0037259D01*
Y0023808D02*
Y0023696D01*
X0034285Y0044994D02*
X0034063D01*
X0034174Y0045216D01*
X0034230D01*
Y0044883D01*
X0033875Y0045216D02*
Y0044938D01*
X0033848Y0044883D01*
X0033681D01*
X0033653Y0044938D01*
Y0045216D01*
X0014938Y0033487D02*
X0014883Y0033431D01*
Y0033320D01*
X0014938Y0033264D01*
X0014994D01*
X0015105Y0033376D01*
X0015216Y0033264D01*
Y0033487D01*
X0014883Y0033786D02*
X0015049D01*
X0015216Y0033674D02*
X0015049Y0033758D01*
Y0033813D01*
X0015216Y0033897D01*
X0032964Y0053667D02*
X0033187D01*
X0032964Y0053445D01*
Y0053390D01*
X0032992Y0053334D01*
X0033159D01*
X0033187Y0053390D01*
X0033374Y0053334D02*
Y0053667D01*
X0033430Y0053612D01*
X0033541Y0053390D01*
X0033597Y0053334D01*
Y0053667D01*
X0033979D02*
X0034007Y0053612D01*
Y0053390D01*
X0033979Y0053334D01*
X0033812D01*
X0033784Y0053390D01*
Y0053612D01*
X0033812Y0053667D01*
X0033979D01*
X0034194Y0053612D02*
X0034222Y0053667D01*
X0034389D01*
X0034417Y0053612D01*
Y0053390D01*
X0034389Y0053334D01*
X0034222D01*
X0034194Y0053390D01*
X0034537Y0024023D02*
X0034592Y0024051D01*
Y0024218D01*
X0034537Y0024245D01*
X0034426D01*
X0034370Y0024190D01*
Y0024023D01*
X0034259D01*
Y0024245D01*
Y0023835D02*
X0034537D01*
X0034592Y0023808D01*
Y0023641D01*
X0034537Y0023613D01*
X0034259D01*
X0038942Y0015139D02*
Y0014917D01*
X0038720Y0015139D01*
X0038664D01*
X0038609Y0015112D01*
Y0014945D01*
X0038664Y0014917D01*
X0038942Y0014535D02*
X0038609D01*
X0038942Y0014507D02*
Y0014674D01*
X0038831Y0014729D01*
X0038720D01*
X0038609Y0014674D01*
Y0014507D01*
X0012813Y0044938D02*
X0012869Y0044883D01*
X0012980D01*
X0013035Y0044938D01*
Y0044994D01*
X0012924Y0045105D01*
X0013035Y0045216D01*
X0012813D01*
X0012625D02*
Y0044938D01*
X0012598Y0044883D01*
X0012431D01*
X0012403Y0044938D01*
Y0045216D01*
X0030340Y0035862D02*
X0030284Y0035917D01*
X0030173D01*
X0030118Y0035862D01*
Y0035806D01*
X0030229Y0035695D01*
X0030118Y0035584D01*
X0030340D01*
X0030750Y0035862D02*
X0030694Y0035917D01*
X0030583D01*
X0030528Y0035862D01*
Y0035806D01*
X0030639Y0035695D01*
X0030528Y0035584D01*
X0030750D01*
X0018694Y0033618D02*
Y0033840D01*
X0018916Y0033729D01*
Y0033673D01*
X0018582D01*
X0018638Y0034250D02*
X0018582Y0034222D01*
Y0034056D01*
X0018638Y0034028D01*
X0018749D01*
X0018805Y0034083D01*
Y0034250D01*
X0018916D01*
Y0034028D01*
X0020535Y0022138D02*
X0020563Y0022082D01*
X0020729D01*
X0020757Y0022138D01*
Y0022249D01*
X0020701Y0022305D01*
X0020535D01*
Y0022416D01*
X0020757D01*
X0020180Y0022082D02*
X0020347Y0022416D01*
X0020125D01*
X0030089Y0047692D02*
X0030145Y0047637D01*
X0030173Y0047581D01*
Y0047470D01*
X0030145Y0047414D01*
X0030089Y0047359D01*
X0030034D01*
X0029978Y0047414D01*
X0029950Y0047470D01*
Y0047581D01*
X0029978Y0047637D01*
X0030034Y0047692D01*
X0030089D01*
X0030360D02*
X0030583D01*
X0030360Y0047470D01*
Y0047414D01*
X0030388Y0047359D01*
X0030555D01*
X0030583Y0047414D01*
X0030854Y0047526D02*
X0030770Y0047692D01*
X0030993Y0047526D02*
X0030826D01*
X0030770Y0047470D01*
Y0047414D01*
X0030826Y0047359D01*
X0030993D01*
Y0047692D01*
X0034625Y0048250D02*
X0034250D01*
X0036625Y0047750D02*
X0034625D01*
Y0048750D01*
X0036625D01*
Y0047750D01*
X0023628Y0013499D02*
X0028356D01*
Y0019901D01*
X0023628D01*
Y0013499D01*
X0037381Y0014881D02*
X0037192Y0015166D01*
X0037125Y0015500D01*
X0037192Y0015834D01*
X0037381Y0016119D01*
X0036619D02*
X0036808Y0015834D01*
X0036875Y0015500D01*
X0036808Y0015166D01*
X0036619Y0014881D01*
X0035381D02*
X0035192Y0015166D01*
X0035125Y0015500D01*
X0035192Y0015834D01*
X0035381Y0016119D01*
X0042619D02*
X0042808Y0015834D01*
X0042875Y0015500D01*
X0042808Y0015166D01*
X0042619Y0014881D01*
X0041381D02*
X0041192Y0015166D01*
X0041125Y0015500D01*
X0041192Y0015834D01*
X0041381Y0016119D01*
X0040619D02*
X0040808Y0015834D01*
X0040875Y0015500D01*
X0040808Y0015166D01*
X0040619Y0014881D01*
X0039381D02*
X0039192Y0015166D01*
X0039125Y0015500D01*
X0039192Y0015834D01*
X0039381Y0016119D01*
X0038619D02*
X0038808Y0015834D01*
X0038875Y0015500D01*
X0038808Y0015166D01*
X0038619Y0014881D01*
X0013250Y0034000D02*
X0013750D01*
Y0027000D01*
X0011750D01*
Y0034000D01*
X0013250D01*
Y0033750D01*
X0012250D01*
Y0034000D01*
X0032125Y0021875D02*
X0018375D01*
Y0036125D01*
X0032625D01*
Y0022375D01*
X0032125Y0021875D01*
X0037500Y0023625D02*
X0036500D01*
X0036000D01*
Y0037375D01*
X0038000D01*
Y0023625D01*
X0037500D01*
Y0023875D01*
X0036500D01*
Y0023625D01*
X0031125Y0048250D02*
X0031500D01*
X0029125D02*
X0028750D01*
X0031125Y0047750D02*
X0029125D01*
Y0048750D01*
X0031125D01*
Y0047750D01*
X0030125Y0046500D02*
X0030500D01*
X0028125D02*
X0027750D01*
X0030125Y0046000D02*
X0028125D01*
Y0047000D01*
X0030125D01*
Y0046000D01*
X0022875Y0046500D02*
X0022500D01*
X0024875D02*
X0025250D01*
X0022875Y0047000D02*
X0024875D01*
Y0046000D01*
X0022875D01*
Y0047000D01*
Y0048250D02*
X0022500D01*
X0024875D02*
X0025250D01*
X0022875Y0048750D02*
X0024875D01*
Y0047750D01*
X0022875D01*
Y0048750D01*
X0036625Y0048250D02*
X0037000D01*
X0020750Y0044125D02*
Y0044500D01*
Y0042125D02*
Y0041750D01*
X0021250Y0044125D02*
Y0042125D01*
X0020250D01*
Y0044125D01*
X0021250D01*
X0013625Y0046750D02*
X0013250D01*
X0015625D02*
X0016000D01*
X0013625Y0047250D02*
X0015625D01*
Y0046250D01*
X0013625D01*
Y0047250D01*
X0012000Y0043250D02*
X0012250D01*
Y0042250D01*
X0012000D01*
X0033250Y0043750D02*
Y0043250D01*
Y0042250D01*
Y0041750D01*
X0040750D01*
Y0043750D01*
X0033250D01*
Y0043250D02*
X0033500D01*
Y0042250D01*
X0033250D01*
X0022750Y0043750D02*
Y0043250D01*
Y0042250D01*
Y0041750D01*
X0030250D01*
Y0043750D01*
X0022750D01*
Y0043250D02*
X0023000D01*
Y0042250D01*
X0022750D01*
X0034500Y0050500D02*
X0017500D01*
Y0052500D01*
X0034500D01*
Y0050500D01*
X0012000Y0043750D02*
Y0043250D01*
Y0042250D01*
Y0041750D01*
X0019500D01*
Y0043750D01*
X0012000D01*
G01X0012500Y0049250D02*
G03X0013875Y0047875I0001375J0000000D01*
G03X0015250Y0049250I0000000J0001375D01*
G03X0013875Y0050625I0001375J0000000D01*
G03X0012500Y0049250I0000000J0001375D01*
G54D33*
G01X0026325Y0023583D02*
X0026158D01*
X0026242D02*
Y0024083D01*
X0026158Y0024000D01*
X0025542Y0023750D02*
Y0023667D01*
X0025583Y0023583D01*
X0025750D01*
X0025792Y0023667D01*
Y0024083D01*
X0025833D02*
X0025667D01*
X0007455Y0046650D02*
X0007100D01*
X0007278Y0047005D01*
X0007366D01*
Y0046472D01*
X0006544Y0046650D02*
Y0046561D01*
X0006589Y0046472D01*
X0006767D01*
X0006811Y0046561D01*
Y0047005D01*
X0006855D02*
X0006678D01*
X0043644Y0046739D02*
X0043911D01*
X0043955Y0046650D01*
Y0046561D01*
X0043911Y0046472D01*
X0043644D01*
X0043600Y0046561D01*
Y0046650D01*
X0043778Y0047005D01*
X0043044Y0046650D02*
Y0046561D01*
X0043089Y0046472D01*
X0043267D01*
X0043311Y0046561D01*
Y0047005D01*
X0043355D02*
X0043178D01*
X0015744Y0052972D02*
X0015655Y0053061D01*
X0015611Y0053150D01*
Y0053328D01*
X0015655Y0053417D01*
X0015744Y0053505D01*
X0015833D01*
X0015922Y0053417D01*
X0015966Y0053328D01*
Y0053150D01*
X0015922Y0053061D01*
X0015833Y0052972D01*
X0015744D01*
X0015366D02*
X0015189D01*
X0015278D02*
Y0053505D01*
X0015189Y0053417D01*
X0014544Y0053150D02*
Y0053061D01*
X0014589Y0052972D01*
X0014767D01*
X0014811Y0053061D01*
Y0053505D01*
X0014855D02*
X0014678D01*
X0014411Y0053239D02*
X0014144D01*
X0014100Y0053328D01*
Y0053417D01*
X0014144Y0053505D01*
X0014411D01*
X0014455Y0053417D01*
Y0053328D01*
X0014278Y0052972D01*
X0013544Y0053150D02*
Y0053061D01*
X0013589Y0052972D01*
X0013767D01*
X0013811Y0053061D01*
Y0053505D01*
X0013855D02*
X0013678D01*
X0035127Y0023722D02*
X0034950D01*
X0035039D02*
Y0024255D01*
X0034950Y0024167D01*
X0034616Y0023722D02*
X0034439D01*
X0034528D02*
Y0024255D01*
X0034439Y0024167D01*
X0033794Y0023900D02*
Y0023811D01*
X0033839Y0023722D01*
X0034017D01*
X0034061Y0023811D01*
Y0024255D01*
X0034105D02*
X0033928D01*
X0017966Y0030972D02*
X0017611D01*
X0017966Y0031328D01*
Y0031417D01*
X0017922Y0031505D01*
X0017655D01*
X0017611Y0031417D01*
X0017366Y0030972D02*
X0017189D01*
X0017278D02*
Y0031505D01*
X0017189Y0031417D01*
X0016544Y0031150D02*
Y0031061D01*
X0016589Y0030972D01*
X0016767D01*
X0016811Y0031061D01*
Y0031505D01*
X0016855D02*
X0016678D01*
X0034661Y0022989D02*
X0034705Y0023078D01*
Y0023167D01*
X0034661Y0023255D01*
X0034394D01*
X0034350Y0023167D01*
Y0023078D01*
X0034394Y0022989D01*
X0034661D01*
X0034705Y0022900D01*
Y0022811D01*
X0034661Y0022722D01*
X0034394D01*
X0034350Y0022811D01*
Y0022900D01*
X0034394Y0022989D01*
X0033794Y0022900D02*
Y0022811D01*
X0033839Y0022722D01*
X0034017D01*
X0034061Y0022811D01*
Y0023255D01*
X0034105D02*
X0033928D01*
X0017189Y0028972D02*
X0017455Y0029505D01*
X0017100D01*
X0016544Y0029150D02*
Y0029061D01*
X0016589Y0028972D01*
X0016767D01*
X0016811Y0029061D01*
Y0029505D01*
X0016855D02*
X0016678D01*
X0007100Y0026811D02*
X0007189Y0026722D01*
X0007366D01*
X0007455Y0026811D01*
Y0026900D01*
X0007278Y0027078D01*
X0007455Y0027255D01*
X0007100D01*
X0006544Y0026900D02*
Y0026811D01*
X0006589Y0026722D01*
X0006767D01*
X0006811Y0026811D01*
Y0027255D01*
X0006855D02*
X0006678D01*
X0043600Y0026811D02*
X0043644Y0026722D01*
X0043911D01*
X0043955Y0026811D01*
Y0026989D01*
X0043866Y0027078D01*
X0043600D01*
Y0027255D01*
X0043955D01*
X0043044Y0026900D02*
Y0026811D01*
X0043089Y0026722D01*
X0043267D01*
X0043311Y0026811D01*
Y0027255D01*
X0043355D02*
X0043178D01*
G54D57*
G01X0010638Y0016647D02*
X0010583Y0016591D01*
Y0016480D01*
X0010638Y0016424D01*
X0010694D01*
X0010805Y0016536D01*
X0010916Y0016424D01*
Y0016647D01*
X0010638Y0016794D02*
X0010583Y0016822D01*
Y0016989D01*
X0010638Y0017017D01*
X0010860D01*
X0010916Y0016989D01*
Y0016822D01*
X0010860Y0016794D01*
X0014011Y0016749D02*
X0014178D01*
X0014205Y0016694D01*
Y0016638D01*
X0014178Y0016583D01*
X0014011D01*
X0013983Y0016638D01*
Y0016694D01*
X0014094Y0016916D01*
X0013752Y0016749D02*
X0013835Y0016583D01*
X0013613Y0016749D02*
X0013780D01*
X0013835Y0016805D01*
Y0016860D01*
X0013780Y0016916D01*
X0013613D01*
Y0016583D01*
X0020583Y0016174D02*
Y0016397D01*
X0020805Y0016174D01*
X0020860D01*
X0020916Y0016202D01*
Y0016369D01*
X0020860Y0016397D01*
X0020749Y0016628D02*
X0020583Y0016544D01*
X0020749Y0016767D02*
Y0016600D01*
X0020805Y0016544D01*
X0020860D01*
X0020916Y0016600D01*
Y0016767D01*
X0020583D01*
X0018020Y0019083D02*
X0017909D01*
X0017964D02*
Y0019416D01*
X0017909Y0019360D01*
X0017622Y0019249D02*
X0017705Y0019083D01*
X0017483Y0019249D02*
X0017650D01*
X0017705Y0019305D01*
Y0019360D01*
X0017650Y0019416D01*
X0017483D01*
Y0019083D01*
X0019333Y0016174D02*
Y0016397D01*
X0019555Y0016174D01*
X0019610D01*
X0019666Y0016202D01*
Y0016369D01*
X0019610Y0016397D01*
X0019388Y0016544D02*
X0019333Y0016572D01*
Y0016739D01*
X0019388Y0016767D01*
X0019610D01*
X0019666Y0016739D01*
Y0016572D01*
X0019610Y0016544D01*
X0018674Y0019056D02*
X0018897D01*
X0018786Y0018834D01*
X0018730D01*
Y0019167D01*
X0019044Y0019112D02*
X0019072Y0019167D01*
X0019239D01*
X0019267Y0019112D01*
Y0018889D01*
X0019239Y0018834D01*
X0019072D01*
X0019044Y0018889D01*
X0012333Y0016730D02*
Y0016841D01*
Y0016786D02*
X0012666D01*
X0012610Y0016841D01*
X0012388Y0017044D02*
X0012333Y0017072D01*
Y0017239D01*
X0012388Y0017267D01*
X0012610D01*
X0012666Y0017239D01*
Y0017072D01*
X0012610Y0017044D01*
X0020692Y0015323D02*
X0020747Y0015351D01*
Y0015518D01*
X0020692Y0015545D01*
X0020581D01*
X0020525Y0015490D01*
Y0015323D01*
X0020414D01*
Y0015545D01*
X0020747Y0014981D02*
X0020414D01*
X0020747Y0014953D02*
Y0015120D01*
X0020636Y0015175D01*
X0020525D01*
X0020414Y0015120D01*
Y0014953D01*
X0017068Y0015417D02*
X0017179D01*
X0017123D02*
Y0015084D01*
X0017179Y0015140D01*
X0017382Y0015417D02*
X0017577D01*
Y0015084D01*
X0010500Y0017800D02*
X0009000D01*
Y0014250D01*
X0010500D01*
Y0017800D01*
X0017780Y0017050D02*
X0015040D01*
Y0015450D01*
X0017780D01*
Y0017050D01*
X0021300Y0015280D02*
Y0015020D01*
X0021600D01*
Y0014970D01*
X0013705Y0015925D02*
X0014855D01*
Y0016570D01*
X0013705D01*
Y0015925D01*
X0019500Y0018050D02*
X0017300D01*
Y0018950D01*
X0019500D01*
Y0018050D01*
X0019550Y0014750D02*
Y0016950D01*
X0020450D01*
Y0014750D01*
X0019550D01*
X0021600Y0016220D02*
X0021300D01*
Y0015960D01*
X0017250Y0020200D02*
X0019450D01*
Y0019300D01*
X0017250D01*
Y0020200D01*
X0018300Y0014750D02*
Y0016950D01*
X0019200D01*
Y0014750D01*
X0018300D01*
X0011300Y0015250D02*
Y0017450D01*
X0012200D01*
Y0015250D01*
X0011300D01*
M02*
