%
T1C0.036F200S100
X007750Y019625
X009000Y027000
X007750Y048250
X011250Y018250
X011250Y022250
X011250Y027500
X011250Y030500
X011250Y033500
X012750Y036500
X012750Y041250
X012750Y044250
X012750Y046750
X013250Y049250
X013750Y041250
X013750Y044250
X014250Y015000
X014250Y027500
X014250Y030500
X014250Y033500
X014500Y049250
X014750Y041250
X014750Y044250
X015500Y024250
X015750Y041250
X015750Y044250
X016500Y046750
X016750Y027000
X017000Y023000
X016750Y041250
X016750Y044250
X017750Y041250
X017750Y044250
X018000Y025250
X018750Y041250
X018750Y044250
X019500Y024000
X019500Y025000
X019500Y026000
X019500Y027000
X019500Y028000
X019500Y029000
X019500Y030000
X019500Y031000
X019500Y032000
X019500Y033000
X019500Y034000
X019500Y038750
X020500Y023000
X020500Y024000
X020500Y025000
X020500Y026000
X020500Y027000
X020500Y028000
X020500Y029000
X020500Y030000
X020500Y031000
X020500Y032000
X020500Y033000
X020500Y034000
X020500Y035000
X020750Y041250
X020750Y045000
X021250Y019000
X021500Y023000
X021500Y024000
X021500Y034000
X021500Y035000
X022000Y046500
X022000Y048250
X022500Y023000
X022500Y024000
X022500Y034000
X022500Y035000
X022750Y026500
X022750Y028250
X022750Y031500
X023500Y023000
X023500Y024000
X023500Y034000
X023500Y035000
X023500Y041250
X023500Y044250
X023750Y022000
X024000Y038250
X024500Y023000
X024500Y024000
X024750Y022000
X024500Y034000
X024500Y035000
X024500Y041250
X024500Y044250
X025250Y026500
X025250Y031500
X025500Y018622
X025500Y019409
X025500Y023000
X025500Y024000
X025500Y034000
X025500Y035000
X025500Y041250
X025500Y044250
X025750Y046500
X025750Y048250
X026000Y038250
X026484Y018622
X026484Y019409
X026500Y023000
X026500Y024000
X026500Y034000
X026500Y035000
X026500Y041250
X026500Y044250
X026750Y040000
X027250Y046500
X027500Y023000
X027500Y024000
X027750Y031500
X027500Y034000
X027500Y035000
X027500Y041250
X027500Y044250
X028000Y029750
X028250Y026500
X028250Y048250
X028500Y023000
X028500Y024000
X029500Y023000
X029500Y024000
X029500Y034000
X028500Y034000
X028500Y035000
X029500Y035000
X029500Y041250
X028500Y041250
X028500Y044250
X029500Y044250
X030500Y023000
X030500Y024000
X030500Y025000
X030500Y026000
X030500Y027000
X030500Y028000
X030500Y029000
X030500Y030000
X030500Y031000
X030500Y032000
X030500Y033000
X030500Y034000
X030500Y035000
X030500Y042500
X031000Y046500
X031500Y024000
X031500Y025000
X031500Y026000
X031500Y027000
X031500Y028000
X031500Y029000
X031500Y030000
X031500Y031000
X031500Y032000
X031500Y033000
X031500Y034000
X031750Y041250
X032000Y017000
X032500Y024750
X032500Y028500
X032000Y048250
X033000Y033250
X033750Y048250
X034000Y041250
X034000Y044250
X034250Y024000
X035000Y041250
X035000Y044250
X035500Y024000
X035500Y025000
X035500Y026000
X035500Y027000
X035500Y028000
X035500Y029000
X035500Y030000
X035500Y031000
X035500Y032000
X035500Y033000
X035500Y034000
X035500Y035000
X035500Y036000
X035500Y037000
X036000Y015000
X036000Y016000
X036000Y041250
X037000Y041250
X037000Y044250
X036000Y044250
X037000Y045750
X037500Y021750
X038000Y015000
X038000Y016000
X038000Y041250
X038000Y044250
X037500Y048250
X038500Y024000
X038500Y025000
X038500Y026000
X038500Y027000
X038500Y028000
X038500Y029000
X038500Y030000
X038500Y031000
X038500Y032000
X038500Y033000
X038500Y034000
X038500Y035000
X038500Y036000
X038500Y037000
X039000Y041250
X039000Y044250
X039875Y039000
X040000Y015000
X040000Y016000
X040000Y041250
X040000Y044250
X041000Y021750
X041500Y024000
X041500Y025000
X041500Y026000
X041500Y027000
X041500Y028000
X041500Y029000
X041500Y030000
X041500Y031000
X041500Y032000
X041500Y033000
X041500Y034000
X041500Y035000
X041500Y036000
X041500Y037000
X042000Y015000
X042000Y016000
X042750Y050500
X044250Y032000
X044500Y015500
T2C0.038F200S100
X014000Y052000
X015000Y052000
X017000Y028000
X017000Y030000
X018000Y051000
X018000Y052000
X019000Y051000
X019000Y052000
X020000Y051000
X020000Y052000
X021000Y051000
X021000Y052000
X022000Y051000
X022000Y052000
X023000Y051000
X023000Y052000
X024000Y051000
X024000Y052000
X025000Y051000
X025000Y052000
X026000Y051000
X026000Y052000
X027000Y051000
X027000Y052000
X028000Y051000
X028000Y052000
X029000Y051000
X029000Y052000
X030000Y051000
X030000Y052000
X031000Y051000
X031000Y052000
X032000Y051000
X032000Y052000
X033000Y051000
X033000Y052000
X034000Y051000
X034000Y052000
X034250Y021750
X034250Y022750
T4C0.130F200S100
X007750Y025500
X007750Y045250
X044250Y025500
X044250Y045250
T3C0.106F200S100
X023628Y017537
X028356Y017537
M30
